<?xml version="1.0" encoding="UTF-8"?>
<svg width="741px" height="262px" viewBox="0 0 741 262" version="1.1" xmlns="http://www.w3.org/2000/svg" xmlns:xlink="http://www.w3.org/1999/xlink">
    <!-- Generator: Sketch 51.2 (57519) - http://www.bohemiancoding.com/sketch -->
    <title>总体-背景-3</title>
    <desc>Created with Sketch.</desc>
    <defs>
        <linearGradient x1="50%" y1="8.94561775%" x2="50%" y2="187.254026%" id="linearGradient-1">
            <stop stop-color="#97EBFF" stop-opacity="0" offset="0%"></stop>
            <stop stop-color="#039BB2" stop-opacity="0.1778476" offset="100%"></stop>
        </linearGradient>
    </defs>
    <g id="鲲鹏计划" stroke="none" stroke-width="1" fill="none" fill-rule="evenodd">
        <g transform="translate(-594.000000, -818.000000)" id="总体-背景-3">
            <g transform="translate(574.000000, 777.000000)">
                <polygon id="Rectangle-10" fill="url(#linearGradient-1)" fill-rule="nonzero" points="0 0.5 778 0.5 590 441.5 216 441.5"></polygon>
                <g id="Group-777" transform="translate(182.000000, 128.000000)">
                    <g id="Group-367" transform="translate(0.000000, 0.590982)" fill="#026291" fill-opacity="0.5">
                        <path d="M297.599746,14.0644012 L301.541636,13.5591107 C302.563075,13.4291788 301.858138,12.9094514 300.031058,12.389724 C300.031058,12.389724 296.592694,11.3935798 291.197772,10.0798244 C286.119351,8.80937962 279.357715,7.27907114 272.538533,5.99418948 C266.122172,4.78149219 259.576333,3.78534798 254.771255,3.12125184 C253.577179,2.96244625 252.498195,2.83251439 251.563075,2.70258254 C250.584795,2.57265069 249.764767,2.47159258 249.088604,2.38497134 C247.736276,2.22616575 246.945021,2.13954451 246.945021,2.13954451 C245.362511,1.96630204 243.866319,1.96630204 243.549817,2.15398138 L243.53543,2.15398138 C243.233315,2.34166073 241.737123,2.37053447 240.240931,2.21172887 C240.240931,2.21172887 239.219492,2.09623389 237.406798,1.9374283 C235.637264,1.76418582 233.105247,1.53319586 230.055317,1.31664278 C224.07055,0.854662854 216.028519,0.450430423 208.044034,0.334935443 C200.117094,0.219440463 192.132609,0.392682933 186.219774,0.666983511 C185.471678,0.695857256 184.752355,0.739167874 184.076192,0.768041619 C183.400028,0.811352237 182.752638,0.840225982 182.148406,0.869099727 C180.925557,0.94128409 179.860959,0.99903158 178.997772,1.05677907 C177.242623,1.17227405 176.235571,1.24445841 176.235571,1.24445841 C174.782539,1.35995339 173.387052,1.3022059 173.142482,1.11452656 L172.797207,0.825789109 C172.567024,0.638109766 171.128378,0.565925404 169.603413,0.710294129 C169.603413,0.710294129 167.244034,0.897973472 163.172666,1.3022059 C159.043752,1.73531208 152.958279,2.41384509 145.880141,3.48217366 C138.399182,4.60824972 129.436417,6.21074257 120.185924,8.3473997 C109.928378,10.7150468 98.8076446,13.8189744 88.2623695,17.5581244 C75.9475599,21.9180599 63.8197743,27.2597027 53.5046827,33.0921992 C47.5774612,36.4415537 42.0386742,39.9497137 37.1041185,43.5156212 C31.8530606,47.4280137 26.8321862,51.4414642 22.9334556,55.324983 C13.467165,64.3480283 8.08662906,72.5481719 4.79212976,78.8137746 C1.23867419,85.8300946 0.188462623,89.8724189 0.188462623,89.8724189 C-0.904908322,92.8319778 3.00820874,93.712627 8.20172073,91.9513286 L26.1847955,85.8878421 C30.7596897,84.3575336 34.5001693,84.9638823 34.7159661,87.259345 C34.7159661,87.259345 34.960536,88.3421105 35.3777433,90.2333408 C35.679859,92.2833767 36.744457,95.0408193 38.0823977,98.5201056 C41.376897,105.882911 48.3974894,116.060906 60.4245698,125.213883 C73.7752045,135.695052 92.3625106,144.487108 108.806234,150.088614 C113.136559,151.474554 117.064062,152.889368 120.746996,153.928822 C124.516248,154.924967 127.83952,155.791179 130.601721,156.513023 C136.126121,158.057768 139.492553,158.635243 139.492553,158.635243 C146.671396,160.035619 154.310606,156.57077 156.339097,151.156943 L156.713145,150.204109 C158.626544,145.223388 165.330635,141.902908 171.732609,142.711372 C171.732609,142.711372 177.084372,143.519837 182.58,143.794138 C188.075628,144.212807 193.600028,144.61704 193.600028,144.61704 C200.275346,144.804719 205.799746,149.034723 205.900451,154.405239 L206.418364,190.078751 C206.490296,198.148963 214.848829,205.526205 224.991283,204.977604 C224.991283,204.977604 227.32189,204.890982 231.666601,204.746614 C236.040085,204.71774 242.370127,204.327944 250.28268,203.375111 C266.150945,202.205724 287.658702,198.408827 311.194951,191.868923 C333.148688,185.256836 354.958561,175.569694 372.337405,162.807499 C387.802849,151.532302 398.693399,138.394748 403.886911,124.838524 C412.806516,103.399769 404.404824,81.7877703 394.406234,68.4914107 C390.162228,62.8899042 386.018928,58.4722212 382.868293,55.5270992 C381.487193,54.1411594 380.206798,53.058394 379.372384,52.3221135 C378.552355,51.6147067 378.120762,51.239348 378.120762,51.239348 C376.351227,49.651292 372.207927,48.0343623 369.345021,47.6590036 L363.791848,46.9227231 C360.914556,46.5473644 357.533738,45.1614247 355.965614,43.8476693 C355.965614,43.8476693 355.131199,43.1691363 353.721326,42.0141865 C353.059549,41.4367116 352.181975,40.7726154 351.117377,39.9930243 C350.052779,39.2278701 349.060113,38.4049683 347.679013,37.4954454 C342.859549,34.1172172 335.968434,29.9882716 328.429929,26.2924323 C321.754612,22.9719516 314.359972,20.0268296 308.893117,18.0345412 C306.317941,17.0961445 304.073653,16.3454271 302.548688,15.8401366 C301.814979,15.5802728 301.210748,15.3925935 300.79354,15.2626617 C300.376333,15.1327298 300.160536,15.0605454 300.160536,15.0605454 C298.491707,14.5263812 296.333738,14.2232068 295.312299,14.3531387 L292.996079,14.6418761 C291.960254,14.7862449 292.305529,15.2915354 293.787334,15.7823891 C293.787334,15.7823891 294.851932,16.128874 296.679013,16.7785333 C298.563639,17.4570663 301.426544,18.4965211 304.807362,19.8824609 C312.216389,22.8853304 323.121326,28.0104201 332.673935,35.1711089 C344.701016,44.0930961 355.433315,57.360582 353.951509,72.3893663 C353.649394,76.9658549 352.023724,81.6289647 349.247137,86.3065114 C347.923583,88.8618379 345.823159,91.2150481 343.837828,93.7703745 C341.320197,96.1957691 338.932045,98.8810274 335.666319,101.248675 C329.134866,106.445949 320.920197,111.412233 310.79213,115.67111 C300.14615,120.276473 287.946432,124.390981 274.121044,127.292793 C245.132327,133.86157 212.187334,135.507373 180.119915,132.721057 C164.539379,131.190748 149.793258,128.649859 136.269986,125.329378 C123.264626,122.124392 111.928096,117.966573 101.987052,113.54889 C83.8601128,105.319873 72.0488293,95.7049155 65.373512,86.4075695 C59.7771791,78.2362997 57.8062341,70.498136 58.6262623,63.6117478 C59.7340197,52.2354922 67.4020028,43.2557575 73.1134274,37.986299 C74.3938223,36.7736017 75.760536,35.7052732 76.7819746,34.8101871 C77.9328914,33.9295378 78.9111707,33.1788205 79.673653,32.6013456 C81.3137094,31.4608326 82.1625106,30.854484 82.1625106,30.854484 C82.5077856,30.623494 82.7235825,30.4069409 82.8099013,30.1903879 C82.8099013,30.1903879 83.4716784,28.9776906 84.3204795,27.7649933 C84.7952327,27.1586446 85.2555994,26.5667329 85.6008745,26.1336267 C85.9749224,25.7005205 86.2770381,25.3973462 86.2770381,25.3973462 C86.4496756,25.2096668 86.7517913,25.0075506 87.1546121,24.8054344 C87.1546121,24.8054344 87.6437518,24.5600076 88.5069394,24.0980276 C89.4132863,23.6793583 90.6936812,23.0585728 92.1898731,22.3511661 C95.2110296,20.9796632 99.1673061,19.2472385 103.411312,17.6591825 C107.396361,16.1577477 111.510889,14.771808 114.618364,13.7901007 C116.128942,13.3136839 117.423724,12.9383252 118.286911,12.6640246 C118.718505,12.5485296 119.06378,12.4474715 119.30835,12.3752871 C119.55292,12.3031028 119.682398,12.274229 119.682398,12.274229 C120.085219,12.1587341 120.545585,12.0432391 121.005952,11.9566178 C121.005952,11.9566178 121.725275,11.8411229 122.80426,11.6390066 C123.868858,11.4368904 125.32189,11.2059005 126.717377,10.9604736 C128.069704,10.7294837 129.50835,10.5129306 130.515402,10.3396881 C131.536841,10.1808825 132.198618,10.0942613 132.198618,10.0942613 C132.630212,10.0220769 133.061805,9.93545568 133.45024,9.84883445 C133.45024,9.84883445 133.953766,9.71890259 134.917659,9.50234951 C135.852779,9.25692267 137.291425,8.95374835 139.075346,8.54951592 C142.600028,7.78436167 147.59213,6.7737806 153.763921,5.79207326 C156.756305,5.33009334 160.007645,4.83923968 163.460395,4.42057037 C166.869986,4.01633794 170.437828,3.59766864 174.178307,3.28005744 C177.861241,2.94800937 181.688039,2.68814567 185.572384,2.47159258 C189.413568,2.28391324 193.326685,2.13954451 197.254189,2.06736015 C205.037264,1.9374283 212.964203,2.11067077 220.272525,2.48602945 C227.76787,2.90469876 234.774076,3.53992115 240.701298,4.23289103 C246.873089,4.95473466 251.922736,5.74876265 255.461805,6.34067442 C257.288886,6.62941187 258.684372,6.90371245 259.648265,7.07695492 C260.640931,7.25019739 261.158843,7.3512555 261.158843,7.3512555 C261.532891,7.42343986 261.935712,7.48118735 262.35292,7.53893484 C262.35292,7.53893484 262.971537,7.6111192 263.892271,7.71217731 C264.841777,7.79879855 266.079013,7.95760414 267.330635,8.11640974 C268.596643,8.27521534 269.905811,8.43402094 270.869704,8.56395279 C271.833597,8.70832152 272.480987,8.79494275 272.480987,8.79494275 C272.783103,8.83825337 273.113992,8.88156399 273.401721,8.95374835 C273.401721,8.95374835 273.718223,8.99705897 274.236135,9.09811708 C274.754048,9.21361206 275.502144,9.35798078 276.394104,9.560097 C278.249958,9.92101881 280.652496,10.4551831 283.112581,11.0182211 C288.234161,12.1731709 293.183103,13.5302369 293.183103,13.5302369 C294.765614,13.9344694 296.679013,14.1798962 297.599746,14.0644012" id="Fill-365"></path>
                    </g>
                    <g id="Group-2" transform="translate(117.968970, 17.668783)" fill="#00AEFF">
                        <polygon id="Fill-368" points="154.396925 19.6774573 153.648829 18.9844874 161.403131 18.9844874 162.338251 19.7640785"></polygon>
                        <path d="M155.605388,20.8901546 C155.605388,20.8901546 155.43275,20.7169121 155.274499,20.5436696 C155.116248,20.3559903 154.929224,20.1827478 154.929224,20.1827478 L163.014415,20.3126797 C163.014415,20.3126797 163.230212,20.5147959 163.446008,20.7024752 C163.661805,20.9190283 163.863216,21.1211445 163.863216,21.1211445 L155.605388,20.8901546 Z" id="Fill-370"></path>
                        <path d="M156.701636,22.1447188 C156.701636,22.1447188 156.543385,21.9570394 156.39952,21.783797 C156.327588,21.6971757 156.255656,21.5961176 156.19811,21.5239333 C156.140564,21.4517489 156.097405,21.4084383 156.097405,21.4084383 L164.484711,21.6971757 C164.484711,21.6971757 164.542257,21.7549232 164.628575,21.8271076 C164.700508,21.899292 164.786827,22.0003501 164.873145,22.1014082 L165.275966,22.5200775 L156.701636,22.1447188 Z" id="Fill-372"></path>
                        <path d="M157.642511,23.4555868 L157.383554,23.0657913 C157.326008,22.97917 157.268463,22.8781119 157.225303,22.8059276 C157.167757,22.7337432 157.124598,22.6904326 157.124598,22.6904326 L165.81402,23.1379756 L165.943498,23.2534706 C166.001044,23.3400918 166.087362,23.4555868 166.173681,23.5566449 C166.346319,23.773198 166.518956,23.9897511 166.518956,23.9897511 L157.642511,23.4555868 Z" id="Fill-374"></path>
                        <path d="M158.42945,24.7953286 C158.42945,24.7953286 158.314358,24.5932124 158.213653,24.405533 C158.127334,24.2034168 157.997856,24.0013006 157.997856,24.0013006 L167.00378,24.6076492 C167.00378,24.6076492 167.176417,24.8386392 167.305896,25.0696292 C167.464147,25.2861823 167.608011,25.5171722 167.608011,25.5171722 L158.42945,24.7953286 Z" id="Fill-376"></path>
                        <path d="M159.048068,26.1625004 C159.048068,26.1625004 158.961749,25.9603842 158.889817,25.7727049 C158.817884,25.5705886 158.717179,25.3540356 158.717179,25.3540356 L168.025219,26.1625004 C168.025219,26.1625004 168.18347,26.3934904 168.284175,26.6100435 C168.38488,26.8554703 168.514358,27.0720234 168.514358,27.0720234 L159.048068,26.1625004 Z" id="Fill-378"></path>
                        <path d="M159.483977,27.5859761 C159.483977,27.5859761 159.426432,27.369423 159.383272,27.1817436 C159.340113,26.9651905 159.253794,26.7486374 159.253794,26.7486374 L168.849563,27.7592185 C168.849563,27.7592185 168.979041,27.9902085 169.050973,28.2356353 C169.137292,28.4810621 169.237997,28.7120521 169.237997,28.7120521 L159.483977,27.5859761 Z" id="Fill-380"></path>
                        <path d="M159.722793,29.0383254 C159.722793,29.0383254 159.69402,28.8217723 159.679633,28.6196561 C159.679633,28.403103 159.622087,28.1865499 159.622087,28.1865499 L169.491199,29.3992472 C169.491199,29.3992472 169.577518,29.6446741 169.620677,29.8901009 C169.663836,30.1355277 169.721382,30.3809546 169.721382,30.3809546 L159.722793,29.0383254 Z" id="Fill-382"></path>
                        <path d="M159.750127,30.5195486 L159.7789,30.1008792 C159.793286,29.8698893 159.7789,29.6533362 159.7789,29.6533362 L169.892581,31.0970235 C169.892581,31.0970235 169.950127,31.3568872 169.964513,31.602314 C169.9789,31.8477408 170.007673,32.0931677 170.007673,32.0931677 L159.750127,30.5195486 Z" id="Fill-384"></path>
                        <path d="M159.567419,32.0411949 L159.653738,31.5936519 C159.682511,31.4781569 159.696897,31.3770988 159.72567,31.2904775 L159.72567,31.1461088 L170.069535,32.8352229 C170.069535,32.8352229 170.069535,32.9074073 170.083921,32.9940285 C170.069535,33.0950866 170.069535,33.2250185 170.055148,33.3549503 L170.040762,33.8602409 L159.567419,32.0411949 Z" id="Fill-386"></path>
                        <path d="M159.145896,33.564285 C159.145896,33.564285 159.232214,33.3477319 159.304147,33.1311788 C159.347306,33.0156838 159.390465,32.9001888 159.419238,32.8135676 C159.433625,32.7269464 159.448011,32.6691989 159.448011,32.6691989 L169.993286,34.6181767 C169.993286,34.6181767 169.993286,34.6759242 169.9789,34.7769823 C169.964513,34.8780404 169.93574,35.0079722 169.906968,35.1379041 C169.849422,35.3977678 169.806262,35.6720684 169.806262,35.6720684 L159.145896,33.564285 Z" id="Fill-388"></path>
                        <path d="M158.485557,35.129242 L158.71574,34.6816989 C158.816446,34.4507089 158.917151,34.2341559 158.917151,34.2341559 L169.64945,36.4285605 C169.64945,36.4285605 169.577518,36.6884242 169.476812,36.9627248 C169.390494,37.2370253 169.289788,37.4968891 169.289788,37.4968891 L158.485557,35.129242 Z" id="Fill-390"></path>
                        <path d="M157.980592,36.0459834 C157.980592,36.0459834 158.15323,35.8149934 158.253935,35.5840034 C158.35464,35.3530135 158.484118,35.1364604 158.484118,35.1364604 L169.28835,37.5041075 C169.28835,37.5041075 169.187645,37.7639712 169.086939,38.0527086 C169.015007,38.3125723 168.871142,38.5868729 168.871142,38.5868729 L157.980592,36.0459834 Z" id="Fill-392"></path>
                        <path d="M156.898731,37.6239335 C156.898731,37.6239335 157.114528,37.3929436 157.244006,37.1619536 C157.402257,36.9165268 157.560508,36.6999737 157.560508,36.6999737 L168.479831,39.3563582 C168.479831,39.3563582 168.335966,39.6306588 168.192102,39.9049594 C168.062623,40.1936968 167.875599,40.4535605 167.875599,40.4535605 L156.898731,37.6239335 Z" id="Fill-394"></path>
                        <path d="M155.549281,39.1888905 L155.693145,39.0445218 C155.779464,38.9579006 155.880169,38.8568424 155.980874,38.7413475 C156.167898,38.4959206 156.369309,38.2793675 156.369309,38.2793675 L167.346178,41.2389264 L166.986516,41.8019644 C166.885811,41.9318963 166.785106,42.0618281 166.684401,42.1628863 C166.612468,42.2783812 166.554922,42.3361287 166.554922,42.3361287 L155.549281,39.1888905 Z" id="Fill-396"></path>
                        <path d="M153.906347,40.7682844 C153.906347,40.7682844 154.194076,40.5372944 154.42426,40.3207413 L154.884626,39.8587614 L165.904654,43.1214946 L165.429901,43.6845326 C165.185331,43.9732701 164.897602,44.2331338 164.897602,44.2331338 L153.906347,40.7682844 Z" id="Fill-398"></path>
                        <path d="M151.967052,42.3332414 C151.967052,42.3332414 152.283554,42.1022514 152.571283,41.8856983 C152.859013,41.6402715 153.132355,41.4237184 153.132355,41.4237184 L164.094838,45.0184996 L163.533766,45.5815377 C163.23165,45.8558383 162.886375,46.1301388 162.886375,46.1301388 L151.967052,42.3332414 Z" id="Fill-400"></path>
                        <path d="M149.732835,43.8707683 C149.732835,43.8707683 150.07811,43.6397783 150.437772,43.4376621 C150.739887,43.1922353 151.070776,42.9756822 151.070776,42.9756822 L161.946939,46.9025115 L161.270776,47.4655495 L160.508293,47.9997138 L149.732835,43.8707683 Z" id="Fill-402"></path>
                        <path d="M147.190748,45.3794215 L147.982003,44.9607522 L148.701326,44.4987722 L159.419238,48.7576496 C159.419238,48.7576496 159.016417,49.0463871 158.627983,49.3062508 L157.750409,49.8548519 L147.190748,45.3794215 Z" id="Fill-404"></path>
                        <path d="M144.337913,46.844764 C144.337913,46.844764 144.783893,46.6282109 145.229873,46.4260947 L146.035515,45.9929885 L156.508858,50.6127878 L155.602511,51.146952 C155.113371,51.3923789 154.638618,51.6522426 154.638618,51.6522426 L144.337913,46.844764 Z" id="Fill-406"></path>
                        <path d="M141.191594,48.2552465 C141.191594,48.2552465 141.666347,48.0531303 142.155487,47.8654509 C142.63024,47.6633347 143.061834,47.4323447 143.061834,47.4323447 L153.218674,52.384192 C153.218674,52.384192 152.729535,52.6584926 152.211622,52.9039194 C151.664937,53.1637831 151.103865,53.3947731 151.103865,53.3947731 L141.191594,48.2552465 Z" id="Fill-408"></path>
                        <path d="M137.72158,49.6079814 C137.72158,49.6079814 138.253879,49.4203021 138.786178,49.2326227 C139.30409,49.0449434 139.79323,48.8283903 139.79323,48.8283903 L149.532863,54.1122857 C149.532863,54.1122857 149.000564,54.3865862 148.410719,54.6175762 C147.806488,54.8485662 147.216643,55.093993 147.216643,55.093993 L137.72158,49.6079814 Z" id="Fill-410"></path>
                        <path d="M133.969591,50.8914194 C133.969591,50.8914194 134.545049,50.7037401 135.106121,50.5449345 C135.408237,50.4583132 135.667193,50.3572551 135.868604,50.2850707 C136.070014,50.2128864 136.199492,50.1551389 136.199492,50.1551389 L145.478759,55.7855192 C145.478759,55.7855192 145.334894,55.8432667 145.090324,55.9298879 C144.874528,56.0165091 144.558025,56.1320041 144.241523,56.2474991 C143.579746,56.4784891 142.932355,56.6950422 142.932355,56.6950422 L133.969591,50.8914194 Z" id="Fill-412"></path>
                        <path d="M129.937066,52.0896798 C129.937066,52.0896798 130.541298,51.9164373 131.159915,51.7576317 C131.462031,51.6854474 131.764147,51.5988261 131.979944,51.5266418 C132.181354,51.4544574 132.325219,51.4111468 132.325219,51.4111468 L141.043413,57.3447014 L140.626206,57.4890701 C140.396023,57.5756914 140.036361,57.6911864 139.691086,57.7922445 C138.98615,57.9943607 138.281213,58.1964769 138.281213,58.1964769 L129.937066,52.0896798 Z" id="Fill-414"></path>
                        <polygon id="Fill-416" points="127.479859 52.7523323 129.939944 52.0882361 138.28409 58.1950332 135.435571 59.0468087"></polygon>
                        <polygon id="Fill-418" points="123.011425 53.7961182 125.62976 53.1897695 133.283357 59.585304 130.219041 60.3504583"></polygon>
                        <polygon id="Fill-420" points="118.318561 54.7114159 121.066375 54.1772516 127.943103 60.8470867 124.691763 61.5400566"></polygon>
                        <polygon id="Fill-422" points="113.401269 55.5155497 116.278561 55.0535697 122.292102 61.9543948 118.896897 62.5463066"></polygon>
                        <polygon id="Fill-424" points="108.301269 56.192639 111.279267 55.8028434 116.38646 62.9202216 112.847391 63.4110753"></polygon>
                        <polygon id="Fill-426" points="103.040141 56.7138101 106.104457 56.4106358 110.247757 63.6868195 106.593597 64.1054888"></polygon>
                        <polygon id="Fill-428" points="97.6596051 57.1093804 100.81024 56.8783904 103.917715 64.2989429 100.162849 64.6021172"></polygon>
                        <polygon id="Fill-430" points="92.194189 57.3345956 95.3879831 57.2046638 97.4596333 64.7262744 93.632835 64.8850799"></polygon>
                        <polygon id="Fill-432" points="86.679859 57.4327663 89.902426 57.3750189 90.8950917 64.9543769 87.0395205 64.9976876"></polygon>
                        <polygon id="Fill-434" points="81.1583357 57.3620257 84.3809027 57.4053363 84.2945839 64.9846944 80.4533992 64.9269469"></polygon>
                        <polygon id="Fill-436" points="75.6655853 57.1512473 78.8593794 57.2956161 77.7084626 64.8316635 73.8816643 64.6728579"></polygon>
                        <polygon id="Fill-438" points="70.24189 56.7989876 73.3925247 57.0299776 71.1626234 64.4938407 67.4077574 64.2051033"></polygon>
                        <path d="M67.1300987,56.5160249 C67.1300987,56.5160249 67.9069676,56.6026462 68.6694499,56.6748305 C69.4463188,56.7614518 70.237574,56.8047624 70.237574,56.8047624 L67.4178279,64.1964411 C67.4178279,64.1964411 66.4683216,64.1386936 65.5475882,64.0376355 C64.6124683,63.9510143 63.6917348,63.8499562 63.6917348,63.8499562 L67.1300987,56.5160249 Z" id="Fill-440"></path>
                        <path d="M61.8833568,55.93855 C61.8833568,55.93855 62.6458392,56.0396081 63.3939351,56.1406663 C64.1564175,56.2417244 64.9188999,56.285035 64.9188999,56.285035 L61.0633286,63.5467819 C61.0633286,63.5467819 60.1425952,63.4601606 59.2506347,63.3446656 L57.4667137,63.0848019 L61.8833568,55.93855 Z" id="Fill-442"></path>
                        <path d="M56.8049365,55.2195938 C56.8049365,55.2195938 57.538646,55.3350888 58.257969,55.4505837 C58.9916784,55.5660787 59.7541608,55.6527 59.7541608,55.6527 L54.9203103,62.7412044 C54.9203103,62.7412044 54.0283498,62.6257094 53.1651622,62.4813407 C52.3019746,62.3225351 51.438787,62.1637295 51.438787,62.1637295 L56.8049365,55.2195938 Z" id="Fill-444"></path>
                        <path d="M51.9149788,54.3735931 C51.9149788,54.3735931 52.6055289,54.5035249 53.3104654,54.6478936 C54.015402,54.7778255 54.734725,54.8788836 54.734725,54.8788836 L48.9945275,61.7508349 C48.9945275,61.7508349 48.1313399,61.6064662 47.3113117,61.4332237 L45.6568688,61.1011757 L51.9149788,54.3735931 Z" id="Fill-446"></path>
                        <path d="M47.2365021,53.4005478 C47.2365021,53.4005478 47.8982793,53.5593534 48.5600564,53.7037222 C49.23622,53.8625278 49.9267701,53.9780227 49.9267701,53.9780227 L43.3377715,60.6045472 C43.3377715,60.6045472 42.5177433,60.4313048 41.7408745,60.2580623 L40.1727504,59.8538299 L47.2365021,53.4005478 Z" id="Fill-448"></path>
                        <path d="M42.8040339,52.3293319 C42.8040339,52.3293319 43.4226516,52.5025744 44.0556559,52.6469431 C44.6886601,52.8346224 45.3504372,52.9645543 45.3504372,52.9645543 L37.9845698,59.3023413 C37.9845698,59.3023413 37.207701,59.1435357 36.4739915,58.9269827 C35.7402821,58.7104296 35.0065726,58.5083133 35.0065726,58.5083133 L42.8040339,52.3293319 Z" id="Fill-450"></path>
                        <path d="M38.6247673,51.1455084 L39.804457,51.5064302 C40.1065726,51.6074883 40.4086883,51.6941095 40.6388717,51.751857 C40.869055,51.8096045 41.0273061,51.8529151 41.0273061,51.8529151 L32.9565021,57.9019647 C32.9565021,57.9019647 32.7694781,57.8586541 32.5105219,57.7720328 C32.2371791,57.6998485 31.8775176,57.5843535 31.5466291,57.4688585 C30.856079,57.2523054 30.1943018,57.0213155 30.1943018,57.0213155 L38.6247673,51.1455084 Z" id="Fill-452"></path>
                        <path d="M34.7260367,49.8909441 C34.7260367,49.8909441 35.2727221,50.0786235 35.8194076,50.2663028 C36.3660931,50.468419 36.9559379,50.6416615 36.9559379,50.6416615 L28.2809027,56.3730999 C28.2809027,56.3730999 27.5903526,56.1709837 26.9717348,55.91112 L25.7201128,55.4347032 L34.7260367,49.8909441 Z" id="Fill-454"></path>
                        <path d="M31.1222285,48.5512024 L32.1292807,48.9409979 C32.6184203,49.157551 33.1794922,49.3452303 33.1794922,49.3452303 L23.9577715,54.7590575 C23.9577715,54.7590575 23.3247673,54.5280676 22.7636953,54.2682039 C22.2026234,54.0083402 21.627165,53.7629133 21.627165,53.7629133 L31.1222285,48.5512024 Z" id="Fill-456"></path>
                        <path d="M27.8061495,47.1407199 L28.7268829,47.5593892 C29.1872496,47.7759423 29.6907757,47.9780585 29.6907757,47.9780585 L20.0230748,53.0454008 C20.0230748,53.0454008 19.4476164,52.8144108 18.9440903,52.5401102 C18.4261777,52.2658097 17.9226516,52.0203828 17.9226516,52.0203828 L27.8061495,47.1407199 Z" id="Fill-458"></path>
                        <path d="M24.7993794,45.6883705 C24.7993794,45.6883705 25.2165867,45.9049236 25.6337941,46.1070398 C26.036615,46.3380298 26.4969817,46.5545829 26.4969817,46.5545829 L16.4552327,51.2898771 C16.4552327,51.2898771 15.9517066,51.0300134 15.5057264,50.7557128 C15.0453597,50.4814122 14.5849929,50.2215485 14.5849929,50.2215485 L24.7993794,45.6883705 Z" id="Fill-460"></path>
                        <path d="M22.0961636,44.1797174 L22.8442595,44.6272604 C23.0312835,44.7427554 23.2183075,44.8582504 23.3621721,44.9448716 C23.5204231,45.017056 23.6067419,45.0748034 23.6067419,45.0748034 L13.2916502,49.4636127 C13.2916502,49.4636127 13.1765585,49.3914283 13.0183075,49.2903702 C12.84567,49.203749 12.6442595,49.0593803 12.4428491,48.9294484 C12.0400282,48.6551478 11.6228209,48.3808473 11.6228209,48.3808473 L22.0961636,44.1797174 Z" id="Fill-462"></path>
                        <path d="M20.6344993,43.2918497 C20.6344993,43.2918497 20.9653879,43.5372765 21.3538223,43.7393927 C21.7278702,43.9559458 22.1019182,44.1869358 22.1019182,44.1869358 L11.6285755,48.3880657 L10.8229337,47.8394645 C10.4201128,47.5796008 10.0604513,47.2908634 10.0604513,47.2908634 L20.6344993,43.2918497 Z" id="Fill-464"></path>
                        <path d="M18.4146685,41.7413296 C18.4146685,41.7413296 18.7023977,41.9867564 19.0332863,42.2033095 C19.3641749,42.4198626 19.6950635,42.6364157 19.6950635,42.6364157 L9.06346968,46.5054975 L8.35853315,45.9713332 C7.99887165,45.6970327 7.71114245,45.4227321 7.71114245,45.4227321 L18.4146685,41.7413296 Z" id="Fill-466"></path>
                        <path d="M16.482567,40.1763726 C16.482567,40.1763726 16.7127504,40.4217994 17.014866,40.6383525 C17.3025952,40.8693425 17.5903244,41.0858956 17.5903244,41.0858956 L6.84363893,44.6229293 C6.84363893,44.6229293 6.54152327,44.3486288 6.25379408,44.0887651 C5.93729196,43.8144645 5.7071086,43.5112902 5.7071086,43.5112902 L16.482567,40.1763726 Z" id="Fill-468"></path>
                        <path d="M14.8453879,38.5969787 C14.8453879,38.5969787 14.9029337,38.6691631 14.974866,38.7557843 C15.0467983,38.8424056 15.16189,38.9434637 15.2913681,39.0589587 L15.7805078,39.5065017 L4.97627645,42.7259243 L4.48713681,42.19176 C4.35765867,42.0473913 4.25695346,41.9030226 4.18502116,41.8164013 C4.0987024,41.7009063 4.05554302,41.628722 4.05554302,41.628722 L14.8453879,38.5969787 Z" id="Fill-470"></path>
                        <path d="M13.4901834,37.0190286 C13.4901834,37.0190286 13.6484344,37.2644554 13.8498449,37.4810085 C14.0512553,37.7119985 14.2526657,37.9429884 14.2526657,37.9429884 L3.47720733,40.8447998 C3.47720733,40.8447998 3.2757969,40.5704992 3.07438646,40.3106355 C2.87297602,40.0363349 2.72911142,39.7475975 2.72911142,39.7475975 L13.4901834,37.0190286 Z" id="Fill-472"></path>
                        <path d="M12.4083216,35.4540716 C12.4083216,35.4540716 12.5234133,35.6994984 12.6816643,35.9160515 C12.8399154,36.1470415 13.0125529,36.3635946 13.0125529,36.3635946 L2.28025388,38.9622316 L1.97813822,38.4280673 C1.83427362,38.1537668 1.73356841,37.8794662 1.73356841,37.8794662 L12.4083216,35.4540716 Z" id="Fill-474"></path>
                        <path d="M11.5868547,33.8891146 C11.5868547,33.8891146 11.6875599,34.1345414 11.7738787,34.3510945 C11.9033568,34.5820845 12.032835,34.7986376 12.032835,34.7986376 L1.41562764,37.1229741 L1.18544429,36.5888098 L1.04157969,36.0402086 L11.5868547,33.8891146 Z" id="Fill-476"></path>
                        <path d="M11.0099577,32.3515877 C11.0099577,32.3515877 11.0675035,32.5825776 11.1250494,32.7991307 C11.2257546,33.0301207 11.3120733,33.2466738 11.3120733,33.2466738 L0.824344147,35.2822728 C0.824344147,35.2822728 0.766798307,35.036846 0.694866008,34.7625454 C0.666093089,34.4882448 0.622933709,34.242818 0.622933709,34.242818 L11.0099577,32.3515877 Z" id="Fill-478"></path>
                        <path d="M10.6733145,30.8429345 C10.6733145,30.8429345 10.7020874,31.0594876 10.7164739,31.2760407 C10.7884062,31.5070306 10.845952,31.7235837 10.845952,31.7235837 L0.530860367,33.499319 C0.530860367,33.499319 0.502087447,33.2394553 0.473314528,32.9795916 C0.487700987,32.7197279 0.487700987,32.4598642 0.487700987,32.4598642 L10.6733145,30.8429345 Z" id="Fill-480"></path>
                        <path d="M10.5611001,29.3487182 C10.5611001,29.3487182 10.5611001,29.5652713 10.5611001,29.7818244 L10.5898731,30.2149305 L0.490578279,31.745239 C0.490578279,31.745239 0.504964739,31.4853753 0.519351199,31.2399485 C0.548124118,30.9800848 0.591283498,30.7490948 0.591283498,30.7490948 L10.5611001,29.3487182 Z" id="Fill-482"></path>
                        <path d="M10.6661213,27.8819319 L10.594189,28.3006012 C10.5798025,28.5171543 10.5798025,28.7337074 10.5798025,28.7337074 L0.710691114,30.0185891 L0.782623413,29.5421723 C0.854555712,29.2967454 0.940874471,29.0513186 0.940874471,29.0513186 L10.6661213,27.8819319 Z" id="Fill-484"></path>
                        <path d="M10.9610437,26.4584563 L10.8315656,26.8771256 C10.8027927,27.0792418 10.7596333,27.2957949 10.7596333,27.2957949 L1.13509168,28.3641235 C1.13509168,28.3641235 1.22141044,28.1331335 1.29334274,27.9021436 C1.39404795,27.6567167 1.49475317,27.4112899 1.49475317,27.4112899 L10.9610437,26.4584563 Z" id="Fill-486"></path>
                        <polygon id="Fill-488" points="11.2142454 25.6543225 10.9552891 26.4627874 1.50338505 27.415621 1.90620592 26.4916611"></polygon>
                        <polygon id="Fill-490" points="11.8040903 24.2871507 11.4588152 25.0811787 2.26586742 25.831896 2.78377997 24.9368099"></polygon>
                        <polygon id="Fill-492" points="12.5636953 22.9618458 12.1177151 23.727 3.21249647 24.3044749 3.83111425 23.4238257"></polygon>
                        <polygon id="Fill-494" points="13.4757969 21.6798515 12.9291114 22.416132 4.32600846 22.8203644 5.04533145 21.9830258"></polygon>
                        <polygon id="Fill-496" points="14.5303244 20.4382805 13.9117066 21.1601241 5.59633286 21.391114 6.40197461 20.5970861"></polygon>
                        <polygon id="Fill-498" points="15.7172073 19.24002 15.0122708 19.9329899 7.01339915 20.034048 7.8909732 19.2688938"></polygon>
                        <polygon id="Fill-500" points="17.0234979 18.0836265 16.2466291 18.7477227 8.54987306 18.7188489 9.49937941 17.9825684"></polygon>
                        <polygon id="Fill-502" points="18.4362482 16.9705437 17.5874471 17.6202029 10.1928068 17.4613973 11.2142454 16.7539906"></polygon>
                        <polygon id="Fill-504" points="19.9453879 15.9123209 19.0390409 16.5186696 11.9465162 16.2588059 13.0398872 15.5947097"></polygon>
                        <polygon id="Fill-506" points="21.5552327 14.8844156 20.5913399 15.4763274 13.8009309 15.1154056 14.9518477 14.4657463"></polygon>
                        <polygon id="Fill-508" points="23.2470804 13.9113704 22.2400282 14.4744084 15.7517348 14.0124285 16.9314245 13.391643"></polygon>
                        <polygon id="Fill-510" points="25.0180536 12.9801921 23.967842 13.5143564 17.7816643 12.9657552 19.0045134 12.3738435"></polygon>
                        <path d="M26.0783357,12.459021 L25.5316502,12.7188847 C25.2726939,12.8488166 25.0137377,12.9787484 25.0137377,12.9787484 L19.0001975,12.3723998 L19.6044288,12.0980992 L20.237433,11.8093617 L26.0783357,12.459021 Z" id="Fill-512"></path>
                        <path d="M27.9687165,11.5985834 C27.9687165,11.5985834 27.6809873,11.7140784 27.3932581,11.8440102 C27.1343018,11.9595052 26.8609591,12.0894371 26.8609591,12.0894371 L21.1351481,11.4109041 C21.1351481,11.4109041 21.4516502,11.2809722 21.7537659,11.1366035 C22.0846544,11.0066716 22.4011566,10.8623029 22.4011566,10.8623029 L27.9687165,11.5985834 Z" id="Fill-514"></path>
                        <path d="M29.9137659,10.7670195 C29.9137659,10.7670195 29.6116502,10.8969514 29.323921,11.0124464 C29.0505783,11.1279414 28.7628491,11.2434363 28.7628491,11.2434363 L23.3247673,10.492719 C23.3247673,10.492719 23.6412694,10.377224 23.972158,10.2328553 L24.6339351,9.97299155 L29.9137659,10.7670195 Z" id="Fill-516"></path>
                        <path d="M31.9163611,9.99175949 L31.3121298,10.2227494 C31.0244006,10.3238076 30.7366714,10.4393025 30.7366714,10.4393025 L25.5863188,9.63083767 C25.5863188,9.63083767 25.9172073,9.50090582 26.2337094,9.38541084 C26.5789845,9.25547899 26.9098731,9.13998401 26.9098731,9.13998401 L31.9163611,9.99175949 Z" id="Fill-518"></path>
                        <path d="M33.9736248,9.25836636 C33.9736248,9.25836636 33.6715092,9.35942447 33.3550071,9.47491945 C33.0672779,9.56154068 32.7651622,9.67703566 32.7651622,9.67703566 L27.8737659,8.81082331 C27.8737659,8.81082331 28.2190409,8.69532833 28.5499295,8.56539648 C28.8952045,8.4499015 29.2404795,8.34884339 29.2404795,8.34884339 L33.9736248,9.25836636 Z" id="Fill-520"></path>
                        <path d="M36.074048,8.55384698 L35.4410437,8.7559632 C35.1533145,8.8570213 34.8368124,8.95807941 34.8368124,8.95807941 L30.2187588,8.03411957 L30.9093089,7.80312961 C31.2545839,7.7020715 31.599859,7.60101339 31.599859,7.60101339 L36.074048,8.55384698 Z" id="Fill-522"></path>
                        <path d="M38.2176305,7.89119453 C38.2176305,7.89119453 37.9011283,7.99225264 37.5846262,8.09331075 C37.2681241,8.17993198 36.9660085,8.26655322 36.9660085,8.26655322 L32.5925247,7.29928276 C32.5925247,7.29928276 32.9377997,7.18378778 33.2974612,7.08272967 C33.6571227,6.99610843 34.0023977,6.89505033 34.0023977,6.89505033 L38.2176305,7.89119453 Z" id="Fill-524"></path>
                        <path d="M40.4014951,7.27040901 C40.4014951,7.27040901 40.0849929,7.37146712 39.7541044,7.45808835 C39.4232158,7.54470959 39.1211001,7.63133083 39.1211001,7.63133083 L35.0065726,6.60631287 C35.0065726,6.60631287 35.3518477,6.50525477 35.7115092,6.40419666 C36.0711707,6.3320123 36.4452186,6.23095419 36.4452186,6.23095419 L40.4014951,7.27040901 Z" id="Fill-526"></path>
                        <path d="M42.6141326,6.69293411 C42.6141326,6.69293411 42.283244,6.77955535 41.9667419,6.86617658 C41.7941044,6.89505033 41.6358533,6.95279782 41.5063752,6.98167156 C41.3912835,6.99610843 41.3193512,7.02498218 41.3193512,7.02498218 L37.46378,5.95665361 C37.46378,5.95665361 37.5357123,5.94221674 37.6795769,5.89890612 C37.809055,5.87003238 37.9816925,5.81228489 38.1687165,5.78341114 L38.902426,5.61016867 L42.6141326,6.69293411 Z" id="Fill-528"></path>
                        <path d="M44.855543,6.14288927 C44.855543,6.14288927 44.5246544,6.2295105 44.1937659,6.30169486 C43.8628773,6.37387923 43.5463752,6.44606359 43.5463752,6.44606359 L39.9209873,5.34886128 C39.9209873,5.34886128 40.2806488,5.26224004 40.6546968,5.19005568 C41.0143583,5.10343444 41.3740197,5.03125008 41.3740197,5.03125008 L44.855543,6.14288927 Z" id="Fill-530"></path>
                        <path d="M47.131481,5.63471135 C47.131481,5.63471135 46.8005924,5.70689572 46.4697038,5.77908008 C46.1244288,5.85126444 45.7935402,5.93788568 45.7935402,5.93788568 L42.4127221,4.78293587 C42.4127221,4.78293587 42.7723836,4.71075151 43.1464316,4.63856715 C43.5204795,4.56638278 43.880141,4.47976155 43.880141,4.47976155 L47.131481,5.63471135 Z" id="Fill-532"></path>
                        <path d="M49.4289986,5.15540718 L48.752835,5.29977591 C48.4075599,5.3575234 48.0766714,5.42970776 48.0766714,5.42970776 L44.9404231,4.26032109 C44.9404231,4.26032109 45.3000846,4.2025736 45.6741326,4.13038923 L46.4222285,3.98602051 L49.4289986,5.15540718 Z" id="Fill-534"></path>
                        <path d="M50.7698166,4.88832504 C50.7698166,4.88832504 50.6834979,4.90276191 50.5540197,4.93163566 C50.4389281,4.96050941 50.2662906,4.98938315 50.1080395,5.03269377 C49.7627645,5.09044126 49.4318759,5.16262562 49.4318759,5.16262562 L46.4107193,3.99323894 C46.4107193,3.99323894 46.7847673,3.90661771 47.1588152,3.83443335 C47.3314528,3.8055596 47.5184767,3.77668586 47.6623413,3.74781211 C47.7918195,3.71893837 47.8925247,3.70450149 47.8925247,3.70450149 L50.7698166,4.88832504 Z" id="Fill-536"></path>
                        <path d="M53.1018618,4.47831786 C53.1018618,4.47831786 52.7565867,4.53606535 52.4256982,4.59381284 C52.0804231,4.65156033 51.7495346,4.7237447 51.7495346,4.7237447 L48.9585614,3.5110474 C48.9585614,3.5110474 49.3326093,3.45329991 49.6922708,3.38111555 C50.0663188,3.32336806 50.4403667,3.2511837 50.4403667,3.2511837 L53.1018618,4.47831786 Z" id="Fill-538"></path>
                        <path d="M55.4554866,4.08419124 C55.4554866,4.08419124 55.1102116,4.14193873 54.7649365,4.19968622 C54.434048,4.25743371 54.0887729,4.3151812 54.0887729,4.3151812 L51.5135966,3.08804704 C51.5135966,3.08804704 51.8876446,3.03029955 52.2616925,2.95811518 C52.6357405,2.90036769 53.0097884,2.8426202 53.0097884,2.8426202 L55.4554866,4.08419124 Z" id="Fill-540"></path>
                        <path d="M57.8163047,3.73193155 C57.8163047,3.73193155 57.4710296,3.77524217 57.1257546,3.83298966 C56.7804795,3.89073715 56.4352045,3.93404777 56.4352045,3.93404777 L54.0902116,2.69247673 C54.0902116,2.69247673 54.4642595,2.63472924 54.8383075,2.57698175 C55.197969,2.51923426 55.5864034,2.47592364 55.5864034,2.47592364 L57.8163047,3.73193155 Z" id="Fill-542"></path>
                        <path d="M60.1972638,3.40710192 C60.1972638,3.40710192 59.8519887,3.45041254 59.5067137,3.50816003 L58.8161636,3.59478126 L56.6725811,2.33877335 C56.6725811,2.33877335 57.0466291,2.28102586 57.420677,2.23771524 C57.794725,2.17996775 58.1831594,2.13665714 58.1831594,2.13665714 L60.1972638,3.40710192 Z" id="Fill-544"></path>
                        <path d="M62.5926093,3.12558291 C62.5926093,3.12558291 62.5062906,3.12558291 62.3768124,3.14001978 C62.2329478,3.15445665 62.0603103,3.1833304 61.8876728,3.19776727 C61.5423977,3.24107789 61.1971227,3.2843885 61.1971227,3.2843885 L59.2693371,2.01394372 C59.2693371,2.01394372 59.643385,1.9706331 60.017433,1.91288561 C60.204457,1.89844874 60.4058674,1.86957499 60.5353456,1.85513812 C60.6935966,1.84070125 60.7799154,1.82626438 60.7799154,1.82626438 L62.5926093,3.12558291 Z" id="Fill-546"></path>
                        <path d="M64.9951481,2.87149395 C64.9951481,2.87149395 64.6354866,2.90036769 64.2902116,2.94367831 C63.9449365,2.97255206 63.585275,3.01586267 63.585275,3.01586267 L61.8732863,1.71654415 C61.8732863,1.71654415 62.2473343,1.67323353 62.6213822,1.64435978 C63.0098166,1.60104916 63.3982511,1.55773855 63.3982511,1.55773855 L64.9951481,2.87149395 Z" id="Fill-548"></path>
                        <path d="M67.4120733,2.64627874 C67.4120733,2.64627874 67.0524118,2.67515248 66.7071368,2.70402623 C66.3474753,2.73289997 66.0022003,2.77621059 66.0022003,2.77621059 L64.4772355,1.46245519 C64.4772355,1.46245519 64.86567,1.43358144 65.2397179,1.39027083 C65.6281523,1.36139708 66.0022003,1.31808646 66.0022003,1.31808646 L67.4120733,2.64627874 Z" id="Fill-550"></path>
                        <path d="M69.8275599,2.44849358 C69.8275599,2.44849358 69.4678984,2.46293046 69.1226234,2.50624107 L68.4176869,2.56398856 L67.108519,1.23579629 C67.108519,1.23579629 67.482567,1.20692254 67.8710014,1.1780488 C68.2450494,1.14917505 68.6334838,1.12030131 68.6334838,1.12030131 L69.8275599,2.44849358 Z" id="Fill-552"></path>
                        <path d="M72.2588717,2.27958217 C72.2588717,2.27958217 71.8992102,2.30845592 71.5539351,2.32289279 C71.1942736,2.35176654 70.8346121,2.38064028 70.8346121,2.38064028 L69.7268547,1.05244801 C69.7268547,1.05244801 70.1152891,1.02357426 70.4893371,0.994700518 C70.8777715,0.965826773 71.2662059,0.9513899 71.2662059,0.9513899 L72.2588717,2.27958217 Z" id="Fill-554"></path>
                        <path d="M74.6959379,2.1525377 L73.976615,2.18141144 C73.6313399,2.21028519 73.2716784,2.22472206 73.2716784,2.22472206 L72.3653315,0.896529785 C72.3653315,0.896529785 72.7537659,0.86765604 73.1278138,0.853219167 C73.5018618,0.824345422 73.9046827,0.80990855 73.9046827,0.80990855 L74.6959379,2.1525377 Z" id="Fill-556"></path>
                        <path d="M77.1330042,2.05436696 C77.1330042,2.05436696 76.7733427,2.05436696 76.4280677,2.08324071 C76.0684062,2.09767758 75.7087447,2.11211445 75.7087447,2.11211445 L75.0038082,0.769485306 C75.0038082,0.769485306 75.3778561,0.755048434 75.7662906,0.740611561 C76.154725,0.711737816 76.5287729,0.711737816 76.5287729,0.711737816 L77.1330042,2.05436696 Z" id="Fill-558"></path>
                        <polygon id="Fill-560" points="78.5658956 2.01105634 77.1272496 2.05436696 76.5374048 0.711737816 78.076756 0.653990326"></polygon>
                        <polygon id="Fill-562" points="81.0115938 1.95475254 79.5873343 1.98362629 79.1845134 0.626560268 80.7094781 0.597686523"></polygon>
                        <polygon id="Fill-564" points="83.4630465 1.92732248 82.0244006 1.94175936 81.8229901 0.584693338 83.3623413 0.584693338"></polygon>
                        <polygon id="Fill-566" points="85.9144993 1.94175936 84.4758533 1.92732248 84.4614669 0.570256465 86.0008181 0.584693338"></polygon>
                        <polygon id="Fill-568" points="88.365952 1.96918941 86.9416925 1.94031567 87.0999436 0.597686523 88.6536812 0.626560268"></polygon>
                        <polygon id="Fill-570" points="90.8174048 2.03993009 89.3931453 1.9821826 89.7384203 0.639553454 91.292158 0.697300944"></polygon>
                        <polygon id="Fill-572" points="93.2688575 2.12510764 91.844598 2.06736015 92.3912835 0.724731002 93.9306347 0.796915364"></polygon>
                        <polygon id="Fill-574" points="95.7131171 2.25215212 94.2888575 2.17996775 95.0369535 0.837338607 96.5763047 0.923959843"></polygon>
                        <polygon id="Fill-576" points="98.1588152 2.40662665 96.7345557 2.30556854 97.6840621 0.977376271 99.2234133 1.07843438"></polygon>
                        <polygon id="Fill-578" points="100.588688 2.60441181 99.1788152 2.47447995 100.315346 1.16072455 101.854697 1.27621953"></polygon>
                        <polygon id="Fill-580" points="103.02 2.81519015 101.610127 2.68525829 102.962454 1.37150289 104.501805 1.51587162"></polygon>
                        <polygon id="Fill-582" points="105.449873 3.0692791 104.025614 2.9104735 105.593738 1.61115498 107.118702 1.76996057"></polygon>
                        <path d="M106.85543,3.22375364 C106.85543,3.22375364 106.769111,3.20931677 106.625247,3.19487989 C106.510155,3.18044302 106.337518,3.16600615 106.150494,3.1371324 C105.805219,3.10825866 105.445557,3.06494804 105.445557,3.06494804 L107.128773,1.76562951 C107.128773,1.76562951 107.502821,1.80894013 107.891255,1.85225075 C108.078279,1.86668762 108.27969,1.89556136 108.409168,1.90999824 C108.553032,1.92443511 108.653738,1.93887198 108.653738,1.93887198 L106.85543,3.22375364 Z" id="Fill-584"></path>
                        <path d="M109.25653,3.51970953 C109.25653,3.51970953 109.170212,3.51970953 109.040733,3.49083578 C108.925642,3.47639891 108.738618,3.44752516 108.56598,3.43308829 C108.206319,3.38977767 107.846657,3.34646706 107.846657,3.34646706 L109.74567,2.0615854 C109.74567,2.0615854 110.134104,2.11933289 110.508152,2.16264351 C110.709563,2.17708038 110.896587,2.20595412 111.040451,2.220391 C111.184316,2.24926474 111.270635,2.26370161 111.270635,2.26370161 L109.25653,3.51970953 Z" id="Fill-586"></path>
                        <path d="M111.659069,3.85897603 C111.659069,3.85897603 111.328181,3.80122854 110.954133,3.75791792 C110.608858,3.7146073 110.249196,3.65685981 110.249196,3.65685981 L112.364006,2.4008519 C112.364006,2.4008519 112.738054,2.44416252 113.126488,2.50191001 C113.514922,2.54522063 113.874584,2.61740499 113.874584,2.61740499 L111.659069,3.85897603 Z" id="Fill-588"></path>
                        <path d="M114.04866,4.22567259 L113.343724,4.11017761 C113.012835,4.05243012 112.653173,4.0091195 112.653173,4.0091195 L114.955007,2.76754847 C114.955007,2.76754847 115.357828,2.82529596 115.731876,2.86860657 C116.12031,2.94079094 116.479972,2.99853843 116.479972,2.99853843 L114.04866,4.22567259 Z" id="Fill-590"></path>
                        <path d="M116.408039,4.61979921 C116.408039,4.61979921 116.077151,4.56205172 115.717489,4.50430423 C115.386601,4.44655674 115.026939,4.38880925 115.026939,4.38880925 L117.558956,3.16167509 C117.558956,3.16167509 117.933004,3.21942258 118.321439,3.29160694 C118.695487,3.34935443 119.083921,3.42153879 119.083921,3.42153879 L116.408039,4.61979921 Z" id="Fill-592"></path>
                        <path d="M118.768858,5.05723645 C118.768858,5.05723645 118.423583,4.99948896 118.078307,4.9273046 C117.747419,4.85512024 117.387757,4.79737275 117.387757,4.79737275 L120.149958,3.59911232 C120.149958,3.59911232 120.524006,3.67129669 120.898054,3.72904418 C121.286488,3.80122854 121.64615,3.8734129 121.64615,3.8734129 L118.768858,5.05723645 Z" id="Fill-594"></path>
                        <path d="M121.100903,5.53654062 C121.100903,5.53654062 120.770014,5.44991938 120.424739,5.37773502 C120.079464,5.31998753 119.734189,5.24780317 119.734189,5.24780317 L122.712186,4.07841649 L123.474669,4.22278522 C123.83433,4.29496958 124.222764,4.38159082 124.222764,4.38159082 L121.100903,5.53654062 Z" id="Fill-596"></path>
                        <path d="M123.404175,6.03028166 C123.404175,6.03028166 123.073286,5.9580973 122.742398,5.87147606 C122.411509,5.7992917 122.051848,5.72710734 122.051848,5.72710734 L125.274415,4.58659441 C125.274415,4.58659441 125.648463,4.65877877 126.022511,4.7454 C126.396559,4.83202124 126.75622,4.9042056 126.75622,4.9042056 L123.404175,6.03028166 Z" id="Fill-598"></path>
                        <path d="M125.694499,6.5803265 C125.694499,6.5803265 125.363611,6.49370527 125.032722,6.40708403 C124.71622,6.3204628 124.356559,6.26271531 124.356559,6.26271531 L127.809309,5.13663925 C127.809309,5.13663925 128.197743,5.22326049 128.557405,5.30988172 L129.291114,5.48312419 L125.694499,6.5803265 Z" id="Fill-600"></path>
                        <path d="M127.957489,7.14336453 C127.957489,7.14336453 127.640987,7.0567433 127.295712,6.97012206 C127.137461,6.92681145 126.97921,6.88350083 126.849732,6.85462708 C126.720254,6.84019021 126.633935,6.81131646 126.633935,6.81131646 L130.331255,5.72855102 C130.331255,5.72855102 130.431961,5.7429879 130.575825,5.78629851 C130.705303,5.81517226 130.892327,5.85848288 131.079351,5.91623037 C131.424626,6.0028516 131.798674,6.10390971 131.798674,6.10390971 L127.957489,7.14336453 Z" id="Fill-602"></path>
                        <path d="M130.17732,7.76415005 C130.17732,7.76415005 129.875205,7.66309194 129.544316,7.57647071 C129.2422,7.4754126 128.896925,7.40322824 128.896925,7.40322824 L132.838815,6.34933654 C132.838815,6.34933654 133.212863,6.45039465 133.558138,6.55145276 C133.9178,6.65251087 134.277461,6.75356897 134.277461,6.75356897 L130.17732,7.76415005 Z" id="Fill-604"></path>
                        <path d="M132.382764,8.41236563 C132.382764,8.41236563 132.066262,8.31130752 131.74976,8.21024941 C131.447645,8.10919131 131.10237,8.03700694 131.10237,8.03700694 L135.303216,7.02642587 C135.303216,7.02642587 135.677264,7.12748397 136.022539,7.24297895 L136.727475,7.44509517 L132.382764,8.41236563 Z" id="Fill-606"></path>
                        <path d="M133.647334,8.80793594 C133.647334,8.80793594 133.345219,8.70687783 133.01433,8.60581972 C132.697828,8.50476161 132.381326,8.41814038 132.381326,8.41814038 L136.726037,7.43643305 C136.726037,7.43643305 137.085698,7.55192803 137.44536,7.65298613 C137.805021,7.76848111 138.150296,7.88397609 138.150296,7.88397609 L133.647334,8.80793594 Z" id="Fill-608"></path>
                        <path d="M135.782285,9.52689219 C135.782285,9.52689219 135.710353,9.49801844 135.595261,9.45470783 C135.480169,9.41139721 135.321918,9.36808659 135.163667,9.3103391 C134.847165,9.22371787 134.530663,9.10822289 134.530663,9.10822289 L139.148717,8.18426304 L139.853653,8.415253 C140.040677,8.47300049 140.213315,8.53074798 140.342793,8.5740586 L140.55859,8.63180609 L135.782285,9.52689219 Z" id="Fill-610"></path>
                        <path d="M137.875515,10.2877154 C137.875515,10.2877154 137.789196,10.2588416 137.688491,10.2010941 C137.573399,10.1577835 137.415148,10.1144729 137.256897,10.0567254 C136.969168,9.9556673 136.652666,9.84017232 136.652666,9.84017232 L141.544062,8.97395997 C141.544062,8.97395997 141.874951,9.08945495 142.234612,9.2193868 C142.392863,9.27713429 142.579887,9.33488179 142.709365,9.3781924 C142.838843,9.40706615 142.925162,9.45037677 142.925162,9.45037677 L137.875515,10.2877154 Z" id="Fill-612"></path>
                        <path d="M139.912638,11.0774123 C139.912638,11.0774123 139.610522,10.9474804 139.322793,10.8319855 C139.020677,10.7309274 138.718561,10.6154324 138.718561,10.6154324 L143.8833,9.80696752 L144.559464,10.0668312 C144.919126,10.1823262 145.235628,10.3122581 145.235628,10.3122581 L139.912638,11.0774123 Z" id="Fill-614"></path>
                        <path d="M141.893653,11.9089762 C141.893653,11.9089762 141.605924,11.7790443 141.318195,11.6635493 L140.72835,11.4181225 L146.180818,10.681842 C146.180818,10.681842 146.511707,10.8117738 146.856982,10.9561426 C147.18787,11.0716376 147.518759,11.2160063 147.518759,11.2160063 L141.893653,11.9089762 Z" id="Fill-616"></path>
                        <path d="M143.804175,12.7968438 C143.804175,12.7968438 143.530832,12.6524751 143.257489,12.5225432 C142.96976,12.4070483 142.682031,12.2771164 142.682031,12.2771164 L148.422228,11.6130203 L149.069619,11.9017577 C149.414894,12.0316896 149.71701,12.1760583 149.71701,12.1760583 L143.804175,12.7968438 Z" id="Fill-618"></path>
                        <path d="M145.65859,13.7135852 C145.65859,13.7135852 145.399633,13.5692165 145.126291,13.4392846 C144.838561,13.3093528 144.579605,13.1794209 144.579605,13.1794209 L150.621918,12.5875092 C150.621918,12.5875092 150.924034,12.7318779 151.254922,12.8762466 C151.571425,13.0206153 151.87354,13.1794209 151.87354,13.1794209 L145.65859,13.7135852 Z" id="Fill-620"></path>
                        <path d="M147.429563,14.6866304 C147.429563,14.6866304 147.184993,14.5278248 146.926037,14.3834561 L146.393738,14.1091555 L152.738166,13.6183019 C152.738166,13.6183019 153.040282,13.7771075 153.342398,13.9214762 C153.673286,14.0802818 153.946629,14.2390874 153.946629,14.2390874 L147.429563,14.6866304 Z" id="Fill-622"></path>
                        <path d="M149.128604,15.6871057 C149.128604,15.6871057 149.071058,15.658232 148.984739,15.6004845 C148.884034,15.542737 148.768942,15.4561157 148.639464,15.3839314 C148.380508,15.2539995 148.135938,15.0951939 148.135938,15.0951939 L154.782482,14.6909615 C154.782482,14.6909615 155.070212,14.8497671 155.372327,15.0085727 C155.516192,15.0951939 155.660056,15.1818152 155.775148,15.2395627 C155.89024,15.311747 155.962172,15.3550576 155.962172,15.3550576 L149.128604,15.6871057 Z" id="Fill-624"></path>
                        <path d="M150.731255,16.7453285 C150.731255,16.7453285 150.673709,16.7020178 150.587391,16.6442704 C150.501072,16.5865229 150.38598,16.5143385 150.270889,16.4421541 L149.796135,16.1245429 L156.744795,15.8358055 L157.305867,16.1678536 C157.449732,16.2544748 157.607983,16.341096 157.694302,16.3988435 C157.795007,16.456591 157.866939,16.4999016 157.866939,16.4999016 L150.731255,16.7453285 Z" id="Fill-626"></path>
                        <path d="M152.247588,17.8439745 C152.247588,17.8439745 152.017405,17.6851689 151.801608,17.5263633 C151.571425,17.3675577 151.355628,17.1943152 151.355628,17.1943152 L158.62079,17.0066359 C158.62079,17.0066359 158.894133,17.1798783 159.153089,17.3675577 C159.426432,17.5408001 159.699774,17.7140426 159.699774,17.7140426 L152.247588,17.8439745 Z" id="Fill-628"></path>
                        <polygon id="Fill-630" points="153.653145 18.9859311 152.818731 18.3218349 160.400395 18.2352137 161.407447 18.9859311"></polygon>
                    </g>
                    <g id="Group-679" transform="translate(24.744711, 0.590982)" fill="#069EE8">
                        <path d="M53.2428491,122.820249 L39.5181664,133.474661 C36.626488,135.755687 29.3181664,134.109884 23.8656982,129.735511 C23.8656982,129.735511 22.7291678,128.652746 20.8013822,126.819263 C18.916756,125.043528 16.1977151,122.603696 13.7376305,119.384274 C12.5291678,117.810655 11.0042031,116.294783 9.8964457,114.475737 C8.78868829,112.714439 7.65215797,110.880956 6.50124118,109.047473 C4.65977433,105.32276 2.81830748,101.540299 1.94073343,97.61347 C0.0561071932,90.4960918 0.0417207334,83.4797718 1.17825106,78.3691189 C1.3077292,77.2141691 1.66739069,76.088093 1.94073343,75.1208226 C2.21407616,74.1824259 2.44425952,73.3595241 2.6312835,72.7098649 C2.81830748,72.0602056 2.99094499,71.5404782 3.14919605,71.1795564 C3.29306065,70.8330714 3.37937941,70.6453921 3.37937941,70.6453921 C4.04115656,69.0573361 5.03382228,67.5703382 6.17035261,66.4298253 C7.37881523,65.2748755 8.6448237,64.4664106 9.6806488,64.2209838 L10.7164739,63.9899939 C11.752299,63.7590039 12.9607616,62.9649759 14.0397461,61.9255211 C14.5864316,61.4202305 15.0611848,60.8427556 15.5647109,60.2219701 C16.0826234,59.6156215 16.5429901,58.9659622 16.9170381,58.3163029 C16.9170381,58.3163029 17.0465162,58.0997499 17.2766996,57.6955174 C17.5356559,57.3057219 17.823385,56.7426838 18.3125247,56.0064033 C19.3771227,54.5482792 20.5999718,52.5993014 22.6572355,50.2460912 C26.2538505,45.9439032 31.6919323,40.645571 38.5542736,35.8236555 C44.4814951,31.5936519 51.2862906,27.7390069 56.5661213,25.125933 C57.1559661,24.8227586 57.7889704,24.5195843 58.3788152,24.2452837 C58.9542736,23.9709832 59.5009591,23.7255563 60.0188717,23.4801295 C60.5223977,23.2491395 60.9827645,23.0181496 61.4143583,22.8160334 C61.874725,22.6139171 62.2919323,22.4262378 62.6659803,22.2674322 C64.1333992,21.6033361 64.9678138,21.2568511 64.9678138,21.2568511 C67.4710578,20.1885226 68.9240903,19.3223102 68.1759944,19.2645627 L66.5647109,19.1779415 C65.816615,19.1346309 67.413512,18.2684185 70.10378,17.2722743 C70.10378,17.2722743 70.6216925,17.0990318 71.5999718,16.7525469 C72.5782511,16.4204988 73.9161918,15.944082 75.7576587,15.3521703 C76.6496192,15.0489959 77.6278984,14.7313847 78.6924965,14.3848998 C79.771481,14.0528517 80.9223977,13.6919299 82.1452468,13.3165712 C82.4473625,13.22995 82.7494781,13.1288919 83.0659803,13.0422707 C83.3824824,12.9556494 83.7133709,12.8545913 84.0298731,12.7535332 C84.6916502,12.5658539 85.3534274,12.3926114 86.029591,12.1904952 C87.3531453,11.8006996 88.8205642,11.4109041 90.2879831,11.0066716 C95.9994076,9.47636314 102.703498,7.87387028 110.054979,6.4446199 C113.507729,5.76608689 117.176276,5.14530137 120.830437,4.53895273 C124.412666,3.9759147 128.081213,3.44175041 131.735374,2.97977049 C135.317602,2.54666432 138.885444,2.14243189 142.424513,1.81038382 C143.287701,1.72376258 144.165275,1.63714135 145.028463,1.56495698 C145.89165,1.49277262 146.740451,1.42058826 147.603639,1.3484039 C148.45244,1.29065641 149.286855,1.21847204 150.121269,1.16072455 C150.970071,1.08854019 151.804485,1.0307927 152.624513,0.987482082 C153.041721,0.958608337 153.444542,0.929734592 153.847362,0.900860847 C154.250183,0.871987101 154.653004,0.857550229 155.070212,0.828676484 C155.875853,0.785365866 156.667109,0.727618376 157.458364,0.698744631 C158.235233,0.655434013 159.026488,0.612123396 159.78897,0.583249651 C160.177405,0.554375906 160.551453,0.539939033 160.939887,0.525502161 C161.313935,0.511065288 161.687983,0.496628415 162.062031,0.46775467 C162.810127,0.438880925 163.543836,0.41000718 164.277546,0.395570308 C164.996869,0.366696563 165.716192,0.35225969 166.421128,0.323385945 C167.126065,0.308949072 167.816615,0.280075327 168.492779,0.265638455 C169.168942,0.251201582 169.830719,0.23676471 170.47811,0.222327837 C175.686008,0.135706602 180.030719,0.164580347 183.066262,0.207890965 C184.591227,0.23676471 185.785303,0.265638455 186.605331,0.280075327 C187.42536,0.308949072 187.856953,0.323385945 187.856953,0.323385945 C190.144401,0.381133435 191.928322,0.554375906 191.856389,0.669870886 L191.56866,1.1895983 C191.511114,1.30509328 193.237489,1.46389888 195.424231,1.57939386 C195.424231,1.57939386 195.913371,1.6082676 196.762172,1.65157822 C197.62536,1.69488884 198.833822,1.78151007 200.286855,1.86813131 C203.221693,2.07024752 207.192355,2.35898497 211.0767,2.7632174 L211.824795,2.82096489 L212.572891,2.89314926 C213.062031,2.95089675 213.551171,3.00864424 214.04031,3.05195486 C214.515063,3.10970235 215.01859,3.16744984 215.493343,3.21076045 C215.982482,3.26850794 216.442849,3.32625543 216.903216,3.38400292 C217.838336,3.48506103 218.759069,3.58611914 219.622257,3.70161412 C220.485444,3.8171091 221.2767,3.91816721 222.039182,4.01922532 C222.41323,4.04809906 222.787278,4.10584655 223.132553,4.14915717 C223.477828,4.20690466 223.79433,4.25021528 224.096446,4.29352589 C224.700677,4.38014713 225.261749,4.45233149 225.693343,4.52451585 C226.139323,4.58226334 226.484598,4.62557396 226.729168,4.65444771 C226.973738,4.68332145 227.088829,4.7121952 227.088829,4.7121952 C229.390663,5.07311701 231.045106,5.4484757 230.74299,5.56397068 L230.555966,5.63615504 C230.412102,5.69390253 230.728604,5.82383438 231.375994,5.96820311 C232.023385,6.12700871 233.016051,6.32912492 234.109422,6.53124114 L234.19574,6.54567801 C235.317884,6.74779423 236.425642,6.9210367 237.274443,7.0220948 C238.123244,7.12315291 238.741862,7.16646353 238.914499,7.12315291 L241.130014,6.43018303 C241.446516,6.34356179 243.733963,6.61786237 246.165275,7.12315291 C246.165275,7.12315291 246.438618,7.1809004 246.970917,7.28195851 C247.24426,7.339706 247.560762,7.41189036 247.963583,7.48407473 C248.33763,7.57069596 248.783611,7.6573172 249.27275,7.77281218 C251.286855,8.20591835 254.19292,8.82670387 257.616897,9.66404248 C261.184739,10.5302548 265.299267,11.6130203 269.658364,12.8690282 C274.262031,14.2116573 279.167814,15.7564027 283.900959,17.4455168 C288.964993,19.2501258 293.942708,21.2279774 298.488829,23.2347027 C303.408999,25.3713598 307.638618,27.5080169 311.364711,29.4714316 C315.205896,31.5647781 318.241439,33.3838241 320.385021,34.7120163 C322.499831,36.0979561 323.751453,36.906421 323.751453,36.906421 C326.412948,38.7399038 327.391227,40.1547173 325.99574,40.0247854 L322.34158,39.6638636 C320.946093,39.5339318 321.65103,40.9054347 323.794612,42.796665 C323.794612,42.796665 324.283752,43.2586449 325.190099,44.1104204 C325.636079,44.5435265 326.197151,45.063254 326.844542,45.6840395 C327.448773,46.304825 328.067391,46.9977949 328.8011,47.7918229 C330.397997,49.4087526 331.80787,51.2999829 333.4767,53.4222032 C334.210409,54.5049686 334.972891,55.6599184 335.764147,56.8437419 C336.526629,58.0564392 337.116474,59.2835734 337.82141,60.5684551 C340.554838,65.9678454 341.777687,71.5549151 342.036643,75.9437243 C342.036643,77.0698004 342.022257,78.1236921 342.00787,79.0765257 C342.00787,79.5673793 342.00787,80.0149224 341.993484,80.4335917 C341.935938,80.852261 341.878392,81.2131828 341.820846,81.5741046 C341.590663,82.9456075 341.475571,83.7540724 341.475571,83.7540724 C341.31732,84.5769741 341.130296,85.3565652 340.684316,85.9629139 C340.223949,86.5692625 339.69165,87.0889899 339.087419,87.4787855 C337.893343,88.2295028 336.497856,88.4460559 335.217461,87.9407654 L327.851594,85.038954 C326.657518,84.5625372 325.851876,83.5230824 325.506601,82.2670745 C325.34835,81.646289 325.30519,80.9821928 325.377123,80.3036598 C325.434669,79.6251268 325.463441,78.8599726 325.708011,78.1670027 C325.708011,78.1670027 325.99574,77.1852954 326.556812,75.40956 C326.786996,73.5905141 327.376841,71.0929351 327.204203,67.8157651 L327.204203,66.6319415 C327.146657,66.2132722 327.089111,65.7946029 327.031566,65.3759336 C326.902087,64.5097213 326.772609,63.629072 326.643131,62.7484228 C326.441721,61.8388998 326.139605,60.91494 325.895035,59.9621064 C325.751171,59.5001265 325.607306,59.0237097 325.477828,58.5617298 C325.276417,58.085313 325.060621,57.5800224 324.85921,57.0891688 C324.6578,56.612752 324.456389,56.1218983 324.240592,55.6454815 C324.067955,55.1546279 323.852158,54.6637742 323.550042,54.1584837 C322.98897,53.1767763 322.442285,52.1661952 321.881213,51.170051 C321.205049,50.1739068 320.528886,49.1633258 319.838336,48.1671815 C319.147786,47.1854742 318.227052,46.1604563 317.450183,45.1787489 C314.227616,41.3962883 310.084316,37.5705171 304.919577,33.8169302 C300.27275,30.4387021 294.733963,27.1326583 288.504626,24.0720413 C285.68488,22.6572278 282.548632,21.2857249 279.455543,19.9575326 C276.376841,18.7159616 273.312525,17.5032643 270.046798,16.3771882 C268.521834,15.8141502 266.881777,15.2944228 265.313653,14.7746954 C264.551171,14.5003948 263.70237,14.2549679 262.925501,14.0095411 C262.119859,13.7641143 261.357377,13.5186874 260.551735,13.2732606 C258.940451,12.8112807 257.4011,12.3493008 255.77543,11.9017577 C254.969788,11.6996415 254.207306,11.4686515 253.401664,11.2520985 L251.027898,10.6457498 C250.265416,10.4580705 249.445388,10.2559543 248.654133,10.053838 C247.862877,9.88059557 247.100395,9.67847935 246.294753,9.49080001 C244.712243,9.14431507 243.216051,8.79783013 241.604767,8.45134519 L239.288547,7.97492839 L236.972327,7.51294847 L235.835797,7.28195851 L234.68488,7.06540542 C233.908011,6.93547357 233.145529,6.79110484 232.411819,6.64673612 C226.484598,5.6072813 220.528604,4.74106894 214.788406,4.07697281 C209.235233,3.42731354 203.782764,2.95089675 198.661185,2.63328555 C193.611537,2.28680061 188.80646,2.09912127 184.389817,1.99806316 C180.001946,1.91144192 175.959351,1.91144192 172.391509,1.95475254 C170.607588,1.99806316 168.938759,2.01250003 167.385021,2.07024752 C166.608152,2.09912127 165.874443,2.11355814 165.15512,2.14243189 C164.450183,2.17130563 163.77402,2.20017938 163.141016,2.22905312 C160.551453,2.3445481 158.537348,2.44560621 157.156248,2.54666432 C156.465698,2.58997493 155.933399,2.61884868 155.573738,2.64772242 C155.228463,2.6621593 155.041439,2.67659617 155.041439,2.67659617 C154.02,2.74878053 153.027334,2.80652802 152.250465,2.80652802 L152.020282,2.80652802 C151.862031,2.80652802 151.646234,2.80652802 151.387278,2.82096489 C150.869365,2.83540177 150.178815,2.84983864 149.473879,2.86427551 C149.128604,2.87871238 148.783329,2.89314926 148.45244,2.89314926 C148.121551,2.90758613 147.819436,2.922023 147.546093,2.922023 C147.028181,2.95089675 146.668519,2.96533362 146.668519,2.96533362 C145.877264,2.99420737 144.827052,3.05195486 143.791227,3.16744984 C143.791227,3.16744984 143.460339,3.21076045 142.856107,3.26850794 C142.237489,3.34069231 141.359915,3.41287667 140.32409,3.52837165 C139.288265,3.6583035 138.05103,3.78823535 136.756248,3.96147783 C136.108858,4.03366219 135.418307,4.12028342 134.742144,4.20690466 C134.037207,4.29352589 133.346657,4.394584 132.656107,4.49564211 C131.951171,4.59670022 131.231848,4.68332145 130.555684,4.78437956 C129.865134,4.88543767 129.174584,4.98649578 128.512807,5.08755388 C127.174866,5.27523323 125.966403,5.49178631 124.887419,5.66502879 C123.808434,5.82383438 122.93086,5.98263998 122.312243,6.09813496 C121.693625,6.19919307 121.333963,6.27137743 121.333963,6.27137743 C120.240592,6.4446199 119.291086,6.66117299 118.643695,6.84885233 C118.643695,6.84885233 118.34158,6.93547357 117.895599,7.05096855 C117.449619,7.16646353 116.845388,7.339706 116.269929,7.52738534 C115.119013,7.85943341 113.953709,8.2347921 113.953709,8.2347921 C113.335092,8.42247144 112.399972,8.66789827 111.335374,8.89888823 C111.335374,8.89888823 111.220282,8.91332511 111.018872,8.95663572 C110.817461,9.01438321 110.515346,9.0721307 110.141298,9.17318881 C109.364429,9.34643128 108.242285,9.62073186 106.774866,9.9672168 C103.868801,10.6890604 99.5816361,11.8006996 94.7046262,13.2876975 C89.5111142,14.8613166 83.526347,16.9402262 77.5415797,19.4233683 C76.7215515,19.7409795 75.987842,20.0874645 75.1965867,20.4339494 C74.4197179,20.7804343 73.5709168,21.1269193 72.794048,21.4878411 C71.2403103,22.2385585 69.542708,23.0037127 68.0177433,23.8121776 C64.6656982,25.4724179 61.5438364,27.277027 58.4939069,29.1682573 L56.1776869,30.6552552 C55.4008181,31.1749826 54.710268,31.69471 53.9477856,32.2288743 L52.8112553,33.0229023 C52.4372073,33.2972028 52.1063188,33.5570665 51.7466573,33.845804 C51.0417207,34.3944051 50.3223977,34.9430063 49.5886883,35.5204812 C48.9269111,36.0835192 48.2507475,36.6609941 47.5745839,37.238469 C47.2436953,37.5416434 46.8840339,37.8303808 46.5675317,38.1335551 C46.2510296,38.4222926 45.948914,38.7399038 45.6324118,39.0286412 C45.0137941,39.6349899 44.3520169,40.2557754 43.7477856,40.862124 C43.1867137,41.4829096 42.6112553,42.1036951 42.0357969,42.7389175 C41.4171791,43.3885767 40.913653,44.0237991 40.4245134,44.6590215 C39.9209873,45.3086808 39.4030748,45.95834 38.8851622,46.6224362 C38.4535684,47.2720954 38.0075882,47.9361916 37.5759944,48.571414 C37.1156276,49.249947 36.6696474,49.9140431 36.3531453,50.5781393 C35.6194358,51.9207684 34.842567,53.2778344 34.3678138,54.5627161 C34.0944711,55.2412491 33.8067419,55.9053452 33.5333992,56.5694414 C33.3463752,57.2335375 33.1593512,57.8831968 32.9723272,58.532856 C31.4042031,64.0477413 31.6919323,68.7108512 32.2530042,72.1179531 C32.6126657,73.8792515 33.0874189,75.2651913 33.3319887,76.2324618 C33.4470804,76.7521892 33.5765585,77.113111 33.6916502,77.3585378 L33.8642877,77.7338965 C34.4397461,79.0765257 34.5836107,80.5346498 34.2239492,81.8339683 C34.2239492,81.8339683 34.1088575,82.4114432 33.9649929,83.2920924 C33.8211283,84.1727417 33.6341044,85.385439 33.4326939,86.62701 C33.3319887,87.2477955 33.2312835,87.8974548 33.1449647,88.4893666 C33.1161918,89.0812783 33.1018054,89.6298795 33.0730324,90.1062963 C33.0298731,91.0735667 33.0011001,91.7376629 33.0011001,91.7376629 C32.9579408,92.6760596 33.1881241,93.7443882 33.6916502,94.8560273 C33.6916502,94.8560273 33.8211283,95.1592017 34.1520169,95.6644922 C34.4829055,96.1842196 34.9432722,96.9493739 35.5043441,97.8588968 C36.0798025,98.7828567 36.7559661,99.8944959 37.5040621,101.092756 C38.410409,102.233269 39.4030748,103.47484 40.3957405,104.730848 C42.3379126,107.430543 45.0281805,109.827064 46.9128068,111.790479 C48.8262059,113.840515 50.4518759,115.038775 50.4518759,115.038775 C54.0628773,117.998334 55.2857264,121.217757 53.2428491,122.820249" id="Fill-675"></path>
                        <path d="M81.7913399,19.2948802 L83.2731453,19.3959383 C83.6471932,19.424812 84.7837236,19.0783271 85.7907757,18.6452209 C85.7907757,18.6452209 86.3086883,18.4431047 87.2150353,18.0821829 C87.6610155,17.8945035 88.207701,17.6923873 88.8263188,17.4469605 C89.4161636,17.1870968 90.178646,16.9272331 90.9411283,16.6384956 C92.4229337,16.0610207 94.3075599,15.4257983 96.2209591,14.776139 C97.2136248,14.444091 98.220677,14.1264798 99.2277292,13.7944317 C100.234781,13.4768205 101.313766,13.1592093 102.349591,12.856035 C106.392186,11.6433377 110.621805,10.5605723 113.786827,9.80985489 C115.354951,9.44893308 116.606573,9.16019563 117.541693,8.95807941 C118.462426,8.77040007 118.980339,8.65490509 118.980339,8.65490509 C119.498251,8.53941011 119.929845,8.42391513 120.203188,8.33729389 C120.490917,8.25067266 120.634781,8.17848829 120.534076,8.16405142 C120.347052,8.10630393 121.066375,7.88975084 122.130973,7.67319776 C122.130973,7.67319776 122.317997,7.62988714 122.648886,7.57213965 C122.979774,7.51439216 123.4833,7.41333405 124.130691,7.29783907 C124.763695,7.18234409 125.540564,7.03797536 126.418138,6.89360664 C127.295712,6.73480104 128.288378,6.56155857 129.381749,6.3883161 C130.446347,6.21507363 131.640423,6.04183116 132.863272,5.83971494 C134.100508,5.66647247 135.409676,5.47879313 136.747616,5.29111379 C137.438166,5.19005568 138.128717,5.11787132 138.80488,5.03125008 C139.150155,4.98793946 139.49543,4.93019197 139.855092,4.88688136 L140.905303,4.7569495 C141.61024,4.68476514 142.329563,4.5981439 143.020113,4.52595954 C143.739436,4.43933831 144.458759,4.36715394 145.178082,4.28053271 C150.788801,3.68862093 156.543385,3.2843885 160.801777,3.05339854 C162.916587,2.93790356 164.700508,2.88015607 165.937743,2.82240858 C167.174979,2.77909796 167.879915,2.76466109 167.879915,2.76466109 C168.397828,2.75022422 168.872581,2.75022422 169.217856,2.75022422 C169.563131,2.76466109 169.778928,2.79353484 169.793315,2.82240858 L169.836474,2.92346669 C169.85086,2.99565105 170.699661,3.0245248 171.7211,3.01008792 C171.7211,3.01008792 171.807419,3.01008792 172.008829,2.99565105 C172.181467,2.99565105 172.45481,2.98121418 172.828858,2.98121418 C173.533794,2.98121418 174.598392,2.96677731 175.936333,2.95234043 C178.626601,2.95234043 182.482172,2.96677731 187.071453,3.11114603 C191.703893,3.26995163 197.156361,3.52981534 202.910945,4.020669 C208.82378,4.54039641 215.168209,5.2333663 221.325614,6.18619988 C222.922511,6.40275297 224.461862,6.67705355 226.073145,6.93691726 C226.850014,7.05241224 227.626883,7.19678096 228.418138,7.34114969 L229.612214,7.55770278 L230.763131,7.75981899 C231.554386,7.91862459 232.331255,8.07743019 233.122511,8.20736204 C233.884993,8.36616764 234.647475,8.53941011 235.424344,8.69821571 C236.215599,8.84258443 236.978082,9.0158269 237.711791,9.1746325 C238.474274,9.34787497 239.251142,9.50668057 239.999238,9.67992304 C246.156643,11.1091734 251.781749,12.6394819 256.442962,14.1264798 C261.435063,15.685662 265.305021,17.1437861 268.009676,18.2265516 C268.714612,18.4864153 269.362003,18.746279 269.894302,18.9628321 C270.412214,19.1793852 270.858195,19.3815014 271.217856,19.540307 C271.965952,19.8434813 272.368773,20.0167238 272.368773,20.0167238 C272.915458,20.2332769 273.447757,20.4353931 273.908124,20.5797618 C274.368491,20.7385674 274.771312,20.8107518 274.958336,20.7963149 L276.440141,20.7385674 C276.828575,20.7096937 278.037038,21.0850523 279.144795,21.5614691 C279.144795,21.5614691 279.28866,21.6336535 279.518843,21.7347116 C279.749027,21.8502066 280.094302,22.0090122 280.525896,22.2111284 C281.40347,22.6297977 282.755797,23.2505832 284.194443,24.0013006 C284.928152,24.405533 285.820113,24.8242023 286.625755,25.2717454 C287.460169,25.7337253 288.35213,26.224579 289.28725,26.7443064 C290.17921,27.2784707 291.11433,27.8270718 292.078223,28.4045467 C293.085275,28.9820216 293.91969,29.5883703 294.883583,30.1947189 C298.782313,32.7644822 302.206291,35.507488 304.536897,37.658582 C305.74536,38.799095 306.651707,39.7519285 307.356643,40.4448984 C307.730691,40.7913834 307.917715,41.0656839 308.090353,41.2533633 L308.349309,41.5421007 C309.097405,42.4083131 310.320254,43.1879042 311.06835,43.3033992 L311.212214,43.3178361 C311.571876,43.3611467 312.089788,43.6065735 312.578928,43.9241847 C313.068068,44.2562328 313.542821,44.7037758 313.888096,45.1657557 C313.888096,45.1657557 314.492327,45.9453469 315.110945,46.7393749 C315.45622,47.1580442 315.65763,47.5334028 315.859041,47.851014 C316.060451,48.1397515 316.175543,48.3563046 316.175543,48.3563046 C316.822934,49.3524488 316.679069,50.0598555 315.844654,49.9154868 L311.341693,49.1214588 C310.564824,48.991527 310.219549,49.6411862 310.62237,50.5940198 C310.62237,50.5940198 310.723075,50.8250098 310.895712,51.258116 C311.06835,51.6767853 311.399238,52.3264445 311.586262,53.1204725 C311.787673,53.9145005 312.176107,54.9539553 312.391904,56.1089051 C312.478223,56.68638 312.578928,57.3216024 312.665247,58.0001354 C312.722793,58.3321835 312.765952,58.6931053 312.823498,59.0540271 C312.866657,59.4149489 312.837884,59.7758708 312.852271,60.1367926 C312.852271,60.9019468 312.852271,61.7104117 312.866657,62.5477503 C312.809111,63.3850889 312.622087,64.2368644 312.521382,65.1463873 C312.435063,65.6083673 312.391904,66.0847841 312.291199,66.546764 C312.147334,67.0231808 312.00347,67.4995976 311.859605,67.9760144 C311.71574,68.4524312 311.557489,68.9577217 311.399238,69.4774491 L311.183441,70.2426033 L310.82378,70.9933207 C309.140564,75.3388194 305.831678,79.8575605 301.184852,84.2752435 C296.178364,89.0249745 289.517433,93.5292788 281.935769,97.4272343 C273.836192,101.541743 264.772722,104.761166 256.414189,107.37424 C247.580903,109.900692 239.653963,111.661991 233.870606,112.744756 C227.957772,113.755337 224.533794,114.347249 224.533794,114.347249 C220.721382,114.823666 217.944795,116.021926 218.405162,117.032507 L219.26835,119.010359 C219.728717,120.02094 216.837038,121.45019 212.621805,121.825549 C212.621805,121.825549 210.44945,121.998791 206.593879,122.330839 C204.666093,122.460771 202.335487,122.792819 199.616446,122.865004 C196.883018,122.980499 193.804316,123.110431 190.423498,123.254799 C176.885839,123.644595 158.773286,123.139304 141.394443,120.829405 C124.490353,118.663874 109.068068,114.982471 98.6234979,111.633117 C93.6313963,109.95844 89.6607334,108.485879 86.9129196,107.489735 C84.3377433,106.378095 82.8990973,105.75731 82.8990973,105.75731 C80.136897,104.573486 77.1157405,104.270312 76.0943018,105.035466 L73.8068547,106.825638 C72.7566432,107.64854 74.1952891,109.337654 77.0725811,110.65141 C77.0725811,110.65141 77.5617207,110.867963 78.4968406,111.286632 C79.4895063,111.690864 80.8130606,112.427145 82.827165,113.148989 C84.8268829,113.914143 87.3445134,114.838103 90.3225106,115.964179 C91.8043159,116.55609 93.5019182,117.104692 95.3577715,117.638856 C97.2136248,118.230768 99.1989563,118.837116 101.328152,119.472339 C102.39275,119.804387 103.471735,120.165309 104.637038,120.48292 C105.816728,120.75722 107.02519,121.074832 108.276812,121.378006 C110.794443,121.998791 113.441551,122.648451 116.232525,123.341421 C119.081044,123.962206 122.14536,124.49637 125.310381,125.117156 C126.907278,125.434767 128.532948,125.737941 130.201777,126.069989 C131.899379,126.300979 133.640141,126.560843 135.424062,126.791833 C139.020677,127.26825 142.660451,127.932346 146.573568,128.278831 C150.486685,128.639753 154.543667,129.015111 158.71574,129.404907 C162.930973,129.607023 167.275684,129.809139 171.735487,130.011256 C176.209676,130.198935 180.78457,130.069003 185.474556,130.126751 C204.133794,129.881324 223.843244,128.018967 242.890917,124.063264 C261.046629,120.309677 277.547898,114.635986 291.071171,107.518608 C297.501918,104.284749 302.767362,100.531162 307.57244,96.8064488 C311.7589,93.0817357 315.556925,89.4147701 318.088942,85.459067 C320.764824,81.8642857 322.217856,78.0240776 323.383159,74.357112 C324.102482,70.8056414 324.577236,67.3841026 324.044937,63.93369 C323.82914,60.7575781 322.706996,57.5525924 321.46976,54.5497229 C321.138872,53.8278793 320.707278,53.0915988 320.347616,52.3697551 C319.930409,51.6623484 319.685839,50.9838154 319.167927,50.2764086 C318.721946,49.5978756 318.275966,48.9193426 317.844372,48.2552465 C317.614189,47.9231984 317.412779,47.6055872 317.182595,47.2735391 L316.405726,46.3062687 C312.69402,41.4987901 307.917715,37.0811071 302.537179,33.1975884 C297.645783,29.7038653 292.279633,26.5999377 286.884711,23.9146794 C281.935769,21.460411 276.886121,19.3381908 272.109817,17.5624554 C267.635628,15.8877782 263.348463,14.4729647 259.521664,13.3324518 C258.600931,13.0437143 257.680197,12.7838506 256.831396,12.5239869 C255.939436,12.292997 255.090635,12.0475701 254.299379,11.8165802 C253.896559,11.7299589 253.508124,11.614464 253.134076,11.498969 C252.731255,11.3979109 252.357207,11.2968528 251.997546,11.1957947 C251.24945,11.0225522 250.544513,10.8348728 249.897123,10.6616304 C248.559182,10.3295823 247.365106,10.0408449 246.343667,9.79541802 C245.336615,9.54999119 244.430268,9.36231184 243.725331,9.20350625 C242.344231,8.87145818 241.567362,8.71265258 241.567362,8.71265258 C241.265247,8.65490509 240.963131,8.5971576 240.661016,8.53941011 C240.661016,8.53941011 240.215035,8.45278887 239.553258,8.33729389 C238.905867,8.22179891 238.013907,8.07743019 237.10756,7.93306146 C236.244372,7.78869274 235.366798,7.62988714 234.705021,7.5432659 C234.05763,7.44220779 233.61165,7.37002343 233.61165,7.37002343 C233.338307,7.32671281 233.036192,7.2834022 232.748463,7.22565471 C232.748463,7.22565471 232.374415,7.15347034 231.74141,7.03797536 C231.122793,6.92248038 230.187673,6.76367479 229.094302,6.57599544 C226.936333,6.20063676 224.030268,5.75309371 221.124203,5.3344244 C220.40488,5.21892942 219.671171,5.14674506 218.966234,5.04568695 C218.261298,4.94462885 217.570748,4.84357074 216.894584,4.7569495 C215.52787,4.5981439 214.290635,4.45377518 213.21165,4.32384333 C212.132666,4.20834835 211.255092,4.10729024 210.636474,4.03510588 C210.319972,3.99179526 210.075402,3.97735839 209.902764,3.96292151 C209.730127,3.94848464 209.643808,3.94848464 209.643808,3.94848464 C209.356079,3.91961089 209.082736,3.87630028 208.838166,3.84742653 C208.838166,3.84742653 208.435346,3.80411591 207.859887,3.71749468 C207.284429,3.64531032 206.50756,3.54425221 205.730691,3.4431941 C204.939436,3.35657287 204.148181,3.26995163 203.572722,3.21220414 C203.284993,3.16889352 203.040423,3.14001978 202.867786,3.12558291 C202.695148,3.11114603 202.594443,3.09670916 202.594443,3.09670916 C202.335487,3.06783542 202.062144,3.03896167 201.774415,3.0245248 C201.774415,3.0245248 201.400367,2.99565105 200.666657,2.93790356 C200.306996,2.90902982 199.875402,2.88015607 199.328717,2.83684545 C198.810804,2.80797171 198.206573,2.76466109 197.530409,2.73578735 C196.192468,2.63472924 194.538025,2.56254488 192.682172,2.46148677 C191.747052,2.41817615 190.74,2.37486553 189.689788,2.33155492 C188.653963,2.2882443 187.546206,2.25937055 186.395289,2.21605994 C185.819831,2.20162306 185.229986,2.18718619 184.640141,2.17274932 C184.03591,2.15831244 183.431678,2.15831244 182.813061,2.14387557 C181.575825,2.1294387 180.29543,2.11500183 178.986262,2.10056495 C176.35354,2.10056495 173.576953,2.10056495 170.728434,2.15831244 C167.836756,2.21605994 164.873145,2.31711804 161.866375,2.46148677 C160.355797,2.53367113 158.830832,2.60585549 157.320254,2.72135047 C155.766516,2.79353484 154.241551,2.90902982 152.7022,3.0245248 C149.609111,3.26995163 146.501636,3.52981534 143.48048,3.87630028 L142.329563,3.97735839 L141.193032,4.12172711 C140.444937,4.20834835 139.682454,4.29496958 138.919972,4.38159082 C138.171876,4.48264892 137.42378,4.56927016 136.690071,4.67032827 C136.316023,4.71363888 135.941975,4.7569495 135.567927,4.81469699 C135.193879,4.85800761 134.834217,4.9157551 134.474556,4.95906572 C128.489788,5.78196745 122.951001,6.73480104 118.289788,7.65876088 C113.398392,8.64046822 109.485275,9.57886493 106.694302,10.2718348 C105.298815,10.6183198 104.162285,10.9070572 103.414189,11.1091734 C102.68048,11.3112896 102.277659,11.4267846 102.277659,11.4267846 C101.975543,11.498969 101.7022,11.5855902 101.45763,11.6722114 C101.45763,11.6722114 101.097969,11.7732696 100.56567,11.9609489 C100.004598,12.1341914 99.3428209,12.3796182 98.6378843,12.625045 C97.9329478,12.8849087 97.2136248,13.1303356 96.6957123,13.3180149 C96.1777997,13.5201311 95.8469111,13.6356261 95.8469111,13.6356261 C95.6742736,13.7078105 95.5016361,13.765558 95.3002257,13.8377423 C95.3002257,13.8377423 94.5089704,14.097606 93.3005078,14.5018385 C92.7250494,14.7039547 92.0488858,14.9493815 91.3151763,15.2092452 C90.5670804,15.4691089 89.7470522,15.7578464 88.9989563,16.0465838 C88.2364739,16.3497582 87.4452186,16.6529325 86.6971227,16.9416699 C85.9634133,17.2159705 85.330409,17.504708 84.7405642,17.7356979 C84.1651058,17.9666879 83.6759661,18.183241 83.3306911,18.3276097 C82.9710296,18.4575415 82.7983921,18.5441628 82.7983921,18.5441628 C81.8776587,18.9483952 81.4460649,19.2660064 81.7913399,19.2948802" id="Fill-677"></path>
                    </g>
                </g>
            </g>
        </g>
    </g>
</svg>