<?xml version="1.0" encoding="UTF-8"?>
<svg width="411px" height="263px" viewBox="0 0 411 263" version="1.1" xmlns="http://www.w3.org/2000/svg" xmlns:xlink="http://www.w3.org/1999/xlink">
    <!-- Generator: Sketch 51.2 (57519) - http://www.bohemiancoding.com/sketch -->
    <title>核心指标-数据</title>
    <desc>Created with Sketch.</desc>
    <defs>
        <text id="text-1" font-family="DINAlternate-Bold, DIN Alternate" font-size="22" font-weight="bold" letter-spacing="0.8800001" fill="#CCEEFF">
            <tspan x="99.2056722" y="56">1.65</tspan>
            <tspan x="139.678798" y="56" font-family="PingFangSC-Semibold, PingFang SC" font-size="16" font-weight="500">亿</tspan>
        </text>
        <filter x="-5.2%" y="-11.5%" width="110.3%" height="123.1%" filterUnits="objectBoundingBox" id="filter-2">
            <feOffset dx="0" dy="0" in="SourceAlpha" result="shadowOffsetOuter1"></feOffset>
            <feGaussianBlur stdDeviation="1" in="shadowOffsetOuter1" result="shadowBlurOuter1"></feGaussianBlur>
            <feColorMatrix values="0 0 0 0 0.2   0 0 0 0 0.733333333   0 0 0 0 1  0 0 0 1 0" type="matrix" in="shadowBlurOuter1"></feColorMatrix>
        </filter>
        <text id="text-3" font-family="DINAlternate-Bold, DIN Alternate" font-size="22" font-weight="bold" letter-spacing="0.8800001" fill="#CCEEFF">
            <tspan x="18.7073041" y="57">32.07</tspan>
            <tspan x="70.6199999" y="57" font-family="PingFangSC-Semibold, PingFang SC" font-size="16" font-weight="500">亿</tspan>
        </text>
        <filter x="-4.3%" y="-11.5%" width="108.7%" height="123.1%" filterUnits="objectBoundingBox" id="filter-4">
            <feOffset dx="0" dy="0" in="SourceAlpha" result="shadowOffsetOuter1"></feOffset>
            <feGaussianBlur stdDeviation="1" in="shadowOffsetOuter1" result="shadowBlurOuter1"></feGaussianBlur>
            <feColorMatrix values="0 0 0 0 0.2   0 0 0 0 0.733333333   0 0 0 0 1  0 0 0 1 0" type="matrix" in="shadowBlurOuter1"></feColorMatrix>
        </filter>
        <text id="text-5" font-family="DINAlternate-Bold, DIN Alternate" font-size="22" font-weight="bold" letter-spacing="0.8800001" fill="#CCEEFF">
            <tspan x="17.1468745" y="73">44.7</tspan>
            <tspan x="57.6199999" y="73" font-family="PingFangSC-Semibold, PingFang SC" font-size="16" font-weight="500">亿</tspan>
        </text>
        <filter x="-5.2%" y="-11.5%" width="110.3%" height="123.1%" filterUnits="objectBoundingBox" id="filter-6">
            <feOffset dx="0" dy="0" in="SourceAlpha" result="shadowOffsetOuter1"></feOffset>
            <feGaussianBlur stdDeviation="1" in="shadowOffsetOuter1" result="shadowBlurOuter1"></feGaussianBlur>
            <feColorMatrix values="0 0 0 0 0.2   0 0 0 0 0.733333333   0 0 0 0 1  0 0 0 1 0" type="matrix" in="shadowBlurOuter1"></feColorMatrix>
        </filter>
        <text id="text-7" font-family="DINAlternate-Bold, DIN Alternate" font-size="22" font-weight="bold" letter-spacing="0.8800001" fill="#CCEEFF">
            <tspan x="23.3617182" y="77">478</tspan>
            <tspan x="59.1199999" y="77" font-family="PingFangSC-Semibold, PingFang SC" font-size="16" font-weight="500">个</tspan>
        </text>
        <filter x="-4.8%" y="-11.5%" width="109.5%" height="123.1%" filterUnits="objectBoundingBox" id="filter-8">
            <feOffset dx="0" dy="0" in="SourceAlpha" result="shadowOffsetOuter1"></feOffset>
            <feGaussianBlur stdDeviation="1" in="shadowOffsetOuter1" result="shadowBlurOuter1"></feGaussianBlur>
            <feColorMatrix values="0 0 0 0 0.2   0 0 0 0 0.733333333   0 0 0 0 1  0 0 0 1 0" type="matrix" in="shadowBlurOuter1"></feColorMatrix>
        </filter>
    </defs>
    <g id="鲲鹏计划" stroke="none" stroke-width="1" fill="none" fill-rule="evenodd">
        <g transform="translate(-32.000000, -513.000000)" id="Group-514">
            <g transform="translate(32.000000, 510.000000)">
                <g id="核心指标-数据">
                    <g id="Group-77" transform="translate(239.941202, 0.000000)">
                        <path d="M79.546,65.1063 C79.546,65.5663 79.696,65.9463 79.866,65.9463 L105.456,65.9463 C105.626,65.9463 105.776,65.5663 105.776,65.1063 L105.776,65.0863 C105.776,64.6263 105.916,64.2463 106.086,64.2463 L113.816,64.2463 C113.986,64.2463 114.136,64.6263 114.136,65.0863 L114.136,65.7863 C114.136,66.2463 114.276,66.6163 114.446,66.6163 L131.486,66.6163 C131.666,66.6163 131.806,66.2463 131.806,65.7863 L131.806,64.0663 C131.806,63.6063 131.946,63.2263 132.126,63.2263 L137.446,63.2263 C137.626,63.2263 137.756,62.8563 137.756,62.3863 L137.756,62.3063 C137.756,61.8363 137.906,61.4663 138.086,61.4663 L138.666,61.4663 C138.846,61.4663 138.986,61.8363 138.986,62.3063 L138.986,64.8363 C138.986,65.2963 139.126,65.6763 139.316,65.6763 L149.716,65.6763 C149.886,65.6763 150.036,65.2963 150.036,64.8363 L150.036,63.9263 C150.036,63.4663 150.176,63.0863 150.356,63.0863 L168.236,63.0863 C168.416,63.0863 168.546,62.7163 168.546,62.2463 L168.546,61.2163 C168.546,60.7563 168.416,60.3763 168.236,60.3763 L125.916,60.3763 C125.916,60.3763 125.816,60.4063 125.776,60.4563 L124.736,61.7363 C124.696,61.7963 124.646,61.8163 124.596,61.8163 L120.836,61.8163 C120.786,61.8163 120.736,61.7963 120.696,61.7363 L119.636,60.4263 C119.586,60.3763 119.546,60.3563 119.496,60.3563 L83.156,60.3563 C83.106,60.3563 83.066,60.3763 83.026,60.4263 L82.016,61.6663 C81.986,61.7063 81.946,61.7263 81.916,61.7363 L79.826,62.4563 C79.676,62.5063 79.546,62.8663 79.546,63.2863 L79.546,65.1063 Z" id="税收-底" fill="#00AEFF"></path>
                        <g id="税收" transform="translate(0.000000, 23.000000)">
                            <path d="M166.88,3.9973 C166.88,3.8473 166.36,3.7173 165.73,3.7173 L145.6,3.7173 C144.97,3.7173 144.45,3.8473 144.45,3.9973 C144.45,4.1573 143.93,4.2873 143.29,4.2873 L125.46,4.2873 C124.82,4.2873 124.3,4.1573 124.3,4.0073 L124.3,3.7773 C124.3,3.6173 123.79,3.4973 123.15,3.4973 L75.29,3.4973 L64.82,13.3573 C64.35,13.7973 64.06,14.2373 64.17,14.3573 L64.56,14.7673 C64.66,14.8773 64.37,15.3273 63.91,15.7673 L49.96,28.9073 C49.5,29.3373 49.2,29.7873 49.31,29.8973 C49.44,30.0273 49.15,30.4773 48.69,30.9173 L47.14,32.3573 C46.68,32.7973 46.22,33.0573 46.12,32.9473 L45.53,32.3273 C45.43,32.2173 44.97,32.4873 44.51,32.9273 L17.19,58.6473 C16.72,59.0873 16.43,59.5273 16.54,59.6373 L16.74,59.8573 C16.85,59.9773 16.56,60.4173 16.1,60.8573 L0.67,75.3873 C0.21,75.8273 -0.08,76.2673 0.02,76.3773 L0.26,76.6273 C0.37,76.7473 0.83,76.4773 1.29,76.0473 L76.12,5.5773 L81.83,5.5773 C81.9433333,5.5773 83.36,5.42396667 86.08,5.1173 C86.1866667,5.11063333 90.8766667,5.10396667 100.15,5.0973 C100.263333,5.0973 101.706667,5.25063333 104.48,5.5573 C104.58,5.57063333 121.046667,5.58063333 153.88,5.5873 C153.993333,5.5873 155.363333,5.44063333 157.99,5.1473 C158.07,5.14063333 160.696667,5.05063333 165.87,4.8773 C166.45,4.8673 166.88,4.7473 166.88,4.6073 L166.88,3.9973 Z" id="Fill-24" fill="#28CBFF"></path>
                            <path d="M163.634,3.8313 C163.634,5.8313 165.254,7.4513 167.254,7.4513 C169.254,7.4513 170.884,5.8313 170.884,3.8313 C170.884,1.8313 169.254,0.2113 167.254,0.2113 C165.254,0.2113 163.634,1.8313 163.634,3.8313" id="Fill-25" fill="#11C8FF"></path>
                        </g>
                        <g id="1.65亿" fill="#CCEEFF" fill-opacity="1">
                            <use filter="url(#filter-2)" xlink:href="#text-1"></use>
                            <use xlink:href="#text-1"></use>
                        </g>
                        <text id="税收" font-family="PingFangSC-Medium, PingFang SC" font-size="16" font-weight="400" fill="#EAFAFF">
                            <tspan x="109" y="17">税收</tspan>
                        </text>
                    </g>
                    <g id="Group-185" transform="translate(0.000000, 9.000000)">
                        <path d="M94,64.93 L94,66.75 C94,67.21 93.82134,67.59 93.5980149,67.59 L86.5409429,67.59 C86.3176179,67.59 86.1389578,67.21 86.1389578,66.75 L86.1389578,66.73 C86.1389578,66.26 85.9602978,65.89 85.7369727,65.89 L75.9888337,65.89 C75.7655087,65.89 75.5868486,66.26 75.5868486,66.73 L75.5868486,67.43 C75.5868486,67.89 75.3970223,68.26 75.1736973,68.26 L53.6563275,68.26 C53.4330025,68.26 53.2543424,67.89 53.2543424,67.43 L53.2543424,65.72 C53.2543424,65.25 53.0645161,64.87 52.8411911,64.87 L46.130273,64.87 C45.9069479,64.87 45.7282878,64.5 45.7282878,64.03 L45.7282878,63.95 C45.7282878,63.48 45.5496278,63.11 45.3263027,63.11 L44.58933,63.11 C44.366005,63.11 44.1873449,63.48 44.1873449,63.95 L44.1873449,66.48 C44.1873449,66.94 43.9975186,67.32 43.7741935,67.32 L30.6315136,67.32 C30.4081886,67.32 30.2295285,66.94 30.2295285,66.48 L30.2295285,65.58 C30.2295285,65.12 30.0508685,64.74 29.8275434,64.74 L22.4019851,64.74 C22.17866,64.74 22,64.36 22,63.89 L22,62.86 C22,62.4 22.17866,62.02 22.4019851,62.02 L60.7022333,62.02 C60.7022333,62.02 60.8138958,62.05 60.869727,62.1 L62.1873449,63.38 C62.2431762,63.44 62.2990074,63.46 62.366005,63.46 L67.1228288,63.46 C67.17866,63.46 67.2344913,63.44 67.2903226,63.38 L68.6414392,62.07 C68.6861042,62.02 68.7419355,62 68.7419355,62 L89.4441687,62 C89.5,62 89.5669975,62.02 89.6116625,62.07 L90.8846154,63.31 C90.9292804,63.35 90.9627792,63.37 91.0074442,63.38 L93.6426799,64.1 C93.8436725,64.15 94,64.51 94,64.93" id="营收-底" fill="#00AEFF"></path>
                        <g id="32.07亿" fill="#CCEEFF" fill-opacity="1">
                            <use filter="url(#filter-4)" xlink:href="#text-3"></use>
                            <use xlink:href="#text-3"></use>
                        </g>
                        <path d="M0,30.5898621 C0,40.2450345 7.82068966,48.114 17.4758621,48.114 C27.1310345,48.114 35,40.2450345 35,30.5898621 C35,20.9346897 27.1310345,13.114 17.4758621,13.114 C7.82068966,13.114 0,20.9346897 0,30.5898621" id="Fill-173" fill="#1EBBF7" opacity="0.1"></path>
                        <path d="M10,31.036732 C10,35.413932 13.545532,38.98135 17.922732,38.98135 C22.299932,38.98135 25.86735,35.413932 25.86735,31.036732 C25.86735,26.659532 22.299932,23.114 17.922732,23.114 C13.545532,23.114 10,26.659532 10,31.036732" id="Fill-173" fill="#1EBBF7" opacity="0.5"></path>
                        <g id="营收" transform="translate(14.000000, 27.000000)">
                            <path d="M0,3.734 C0,5.734 1.62,7.364 3.62,7.364 C5.62,7.364 7.25,5.734 7.25,3.734 C7.25,1.734 5.62,0.114 3.62,0.114 C1.62,0.114 0,1.734 0,3.734" id="Fill-173" fill="#1EBBF7"></path>
                            <path d="M7.637,3.27 L7.637,3.88 C7.637,4.03 8.027,4.15 8.507,4.15 L23.667,4.15 C24.147,4.15 24.537,4.03 24.537,3.88 L24.537,3.87 C24.537,3.71 24.927,3.59 25.407,3.59 L46.377,3.59 C46.857,3.59 47.237,3.71 47.237,3.87 L47.237,4.1 C47.237,4.26 47.637,4.38 48.107,4.38 L94.307,4.38 C94.307,4.38 94.307,4.37 94.307,4.36 C94.317,4.33 94.347,4.31 94.387,4.29 C94.407,4.25 94.517,4.29 94.547,4.24 L94.957,3.84 C95.067,3.73 95.427,3.92 95.767,4.26 L105.857,14.58 C106.187,14.93 106.557,15.12 106.667,15.01 L106.687,14.99 C106.797,14.89 107.157,15.08 107.497,15.42 L108.607,16.56 C108.937,16.9 109.117,17.26 109.017,17.37 L108.407,17.96 C108.297,18.07 108.477,18.44 108.817,18.78 L128.577,38.99 C128.907,39.34 129.277,39.53 129.387,39.42 L129.597,39.21 C129.707,39.1 130.067,39.3 130.407,39.64 L141.567,51.05 C141.897,51.4 142.257,51.59 142.377,51.48 L142.617,51.24 C142.727,51.13 142.547,50.77 142.217,50.42 L95.177,2.3 L79.247,2.3 C79.117,2.3 78.987,2.31 78.877,2.33 L76.037,2.75 C75.927,2.77 75.797,2.78 75.677,2.78 L65.437,2.78 C65.317,2.78 65.187,2.77 65.067,2.75 L62.177,2.32 C62.067,2.3 61.937,2.29 61.807,2.29 L17.427,2.29 C17.307,2.29 17.177,2.3 17.057,2.32 L14.327,2.73 C14.247,2.74 14.157,2.75 14.157,2.75 L8.397,2.99 C7.957,3.01 7.637,3.13 7.637,3.27" id="Fill-174" fill="#28CBFF"></path>
                        </g>
                        <text id="营收" font-family="PingFangSC-Medium, PingFang SC" font-size="16" font-weight="400" fill="#EAFAFF">
                            <tspan x="38" y="17">营收</tspan>
                        </text>
                    </g>
                    <g id="Group-76" transform="translate(18.000000, 149.000000)">
                        <g id="融资-底" transform="translate(10.000000, 75.000000)" fill="#00A8FF">
                            <g id="Group-6">
                                <path d="M35.4402341,7.10405959 C35.3103589,7.10405959 35.1804838,7.05949238 35.0841248,6.9740719 L28.2929109,0.95749888 C28.0960034,0.782943984 28.0960034,0.500685003 28.2929109,0.322416172 C28.4898184,0.147861276 28.8124115,0.147861276 29.009319,0.322416172 L35.7963434,6.3389892 C35.9932509,6.51725803 35.9932509,6.79951701 35.7963434,6.9740719 C35.6999844,7.05949238 35.5701092,7.10405959 35.4402341,7.10405959" id="Fill-1"></path>
                                <path d="M32.9114391,7.10405959 C32.7815639,7.10405959 32.6516887,7.05949238 32.5553298,6.9740719 L25.7641158,0.95749888 C25.5713979,0.782943984 25.5713979,0.500685003 25.7641158,0.322416172 C25.9652129,0.147861276 26.2836165,0.147861276 26.480524,0.322416172 L33.2675484,6.3389892 C33.4686454,6.51725803 33.4686454,6.79951701 33.2675484,6.9740719 C33.1711894,7.05949238 33.0413142,7.10405959 32.9114391,7.10405959" id="Fill-3"></path>
                                <path d="M30.3851578,7.10405959 C30.2552826,7.10405959 30.1254074,7.05949238 30.0290485,6.9740719 L23.2378345,0.95749888 C23.0451166,0.782943984 23.0451166,0.500685003 23.2378345,0.322416172 C23.4389316,0.147861276 23.7573352,0.147861276 23.9542427,0.322416172 L30.7412671,6.3389892 C30.9381746,6.51725803 30.9381746,6.79951701 30.7412671,6.9740719 C30.6449081,7.05949238 30.5150329,7.10405959 30.3851578,7.10405959" id="Fill-5"></path>
                                <path d="M27.8588765,7.10405959 C27.7290013,7.10405959 27.5991261,7.05949238 27.5027672,6.9740719 L20.7115532,0.95749888 C20.5146457,0.782943984 20.5146457,0.500685003 20.7115532,0.322416172 C20.9084607,0.147861276 21.2310539,0.147861276 21.4279614,0.322416172 L28.2149858,6.3389892 C28.4118933,6.51725803 28.4118933,6.79951701 28.2149858,6.9740719 C28.1186268,7.05949238 27.9887516,7.10405959 27.8588765,7.10405959" id="Fill-7"></path>
                                <path d="M25.3305004,7.10405959 C25.2006252,7.10405959 25.0707501,7.05949238 24.9743911,6.9740719 L18.1873667,0.95749888 C17.9904592,0.782943984 17.9904592,0.500685003 18.1873667,0.322416172 C18.3842742,0.147861276 18.7026778,0.147861276 18.8995853,0.322416172 L25.6866097,6.3389892 C25.8877067,6.51725803 25.8877067,6.79951701 25.6866097,6.9740719 C25.5902507,7.05949238 25.4603756,7.10405959 25.3305004,7.10405959" id="Fill-9"></path>
                                <path d="M22.8038001,7.10405959 C22.673925,7.10405959 22.5440498,7.05949238 22.4476908,6.9740719 L15.6564769,0.95749888 C15.4637589,0.782943984 15.4637589,0.500685003 15.6564769,0.322416172 C15.8575739,0.147861276 16.1759775,0.147861276 16.372885,0.322416172 L23.1599094,6.3389892 C23.3568169,6.51725803 23.3568169,6.79951701 23.1599094,6.9740719 C23.0635505,7.05949238 22.9336753,7.10405959 22.8038001,7.10405959" id="Fill-11"></path>
                                <path d="M20.2754241,7.10405959 C20.1455489,7.10405959 20.0156738,7.05949238 19.9193148,6.9740719 L13.1322904,0.95749888 C12.9353829,0.782943984 12.9353829,0.500685003 13.1322904,0.322416172 C13.3291979,0.147861276 13.6476015,0.147861276 13.844509,0.322416172 L20.6315334,6.3389892 C20.8326304,6.51725803 20.8326304,6.79951701 20.6315334,6.9740719 C20.5351744,7.05949238 20.4052992,7.10405959 20.2754241,7.10405959" id="Fill-13"></path>
                                <path d="M17.7491428,7.10405959 C17.6192676,7.10405959 17.4893925,7.05949238 17.3930335,6.9740719 L10.6018195,0.95749888 C10.4091016,0.782943984 10.4091016,0.500685003 10.6018195,0.322416172 C10.8029166,0.147861276 11.1213202,0.147861276 11.3182277,0.322416172 L18.1052521,6.3389892 C18.3063491,6.51725803 18.3063491,6.79951701 18.1052521,6.9740719 C18.0088931,7.05949238 17.8790179,7.10405959 17.7491428,7.10405959" id="Fill-15"></path>
                                <path d="M15.2228615,7.10405959 C15.0929863,7.10405959 14.9631112,7.05949238 14.8667522,6.9740719 L8.07553825,0.95749888 C7.87863075,0.782943984 7.87863075,0.500685003 8.07553825,0.322416172 C8.27663527,0.147861276 8.59503888,0.147861276 8.79194638,0.322416172 L15.5789708,6.3389892 C15.7758783,6.51725803 15.7758783,6.79951701 15.5789708,6.9740719 C15.4826118,7.05949238 15.3527366,7.10405959 15.2228615,7.10405959" id="Fill-17"></path>
                                <path d="M12.6944854,7.10405959 C12.5646102,7.10405959 12.4347351,7.05949238 12.3383761,6.9740719 L5.5513517,0.95749888 C5.35444421,0.782943984 5.35444421,0.500685003 5.5513517,0.322416172 C5.7482592,0.147861276 6.06666282,0.147861276 6.26357031,0.322416172 L13.0505947,6.3389892 C13.2516917,6.51725803 13.2516917,6.79951701 13.0505947,6.9740719 C12.9542357,7.05949238 12.8243606,7.10405959 12.6944854,7.10405959" id="Fill-19"></path>
                                <path d="M10.1677851,7.10405959 C10.03791,7.10405959 9.90803483,7.05949238 9.81167584,6.9740719 L3.02046193,0.95749888 C2.82774395,0.782943984 2.82774395,0.500685003 3.02046193,0.322416172 C3.22155895,0.147861276 3.53996256,0.147861276 3.73687006,0.322416172 L10.5238945,6.3389892 C10.720802,6.51725803 10.720802,6.79951701 10.5238945,6.9740719 C10.4275355,7.05949238 10.2976603,7.10405959 10.1677851,7.10405959" id="Fill-21"></path>
                                <path d="M7.64150385,7.10405959 C7.51162869,7.10405959 7.38175353,7.05949238 7.28539454,6.9740719 L0.494180623,0.95749888 C0.297273126,0.782943984 0.297273126,0.500685003 0.494180623,0.322416172 C0.695277643,0.147861276 1.01368126,0.147861276 1.21058875,0.322416172 L7.99761315,6.3389892 C8.19452065,6.51725803 8.19452065,6.79951701 7.99761315,6.9740719 C7.90125416,7.05949238 7.771379,7.10405959 7.64150385,7.10405959" id="Fill-23"></path>
                            </g>
                            <g id="Group-6" transform="translate(30.000000, 0.000000)">
                                <path d="M35.4402341,7.10405959 C35.3103589,7.10405959 35.1804838,7.05949238 35.0841248,6.9740719 L28.2929109,0.95749888 C28.0960034,0.782943984 28.0960034,0.500685003 28.2929109,0.322416172 C28.4898184,0.147861276 28.8124115,0.147861276 29.009319,0.322416172 L35.7963434,6.3389892 C35.9932509,6.51725803 35.9932509,6.79951701 35.7963434,6.9740719 C35.6999844,7.05949238 35.5701092,7.10405959 35.4402341,7.10405959" id="Fill-1"></path>
                                <path d="M32.9114391,7.10405959 C32.7815639,7.10405959 32.6516887,7.05949238 32.5553298,6.9740719 L25.7641158,0.95749888 C25.5713979,0.782943984 25.5713979,0.500685003 25.7641158,0.322416172 C25.9652129,0.147861276 26.2836165,0.147861276 26.480524,0.322416172 L33.2675484,6.3389892 C33.4686454,6.51725803 33.4686454,6.79951701 33.2675484,6.9740719 C33.1711894,7.05949238 33.0413142,7.10405959 32.9114391,7.10405959" id="Fill-3"></path>
                                <path d="M30.3851578,7.10405959 C30.2552826,7.10405959 30.1254074,7.05949238 30.0290485,6.9740719 L23.2378345,0.95749888 C23.0451166,0.782943984 23.0451166,0.500685003 23.2378345,0.322416172 C23.4389316,0.147861276 23.7573352,0.147861276 23.9542427,0.322416172 L30.7412671,6.3389892 C30.9381746,6.51725803 30.9381746,6.79951701 30.7412671,6.9740719 C30.6449081,7.05949238 30.5150329,7.10405959 30.3851578,7.10405959" id="Fill-5"></path>
                                <path d="M27.8588765,7.10405959 C27.7290013,7.10405959 27.5991261,7.05949238 27.5027672,6.9740719 L20.7115532,0.95749888 C20.5146457,0.782943984 20.5146457,0.500685003 20.7115532,0.322416172 C20.9084607,0.147861276 21.2310539,0.147861276 21.4279614,0.322416172 L28.2149858,6.3389892 C28.4118933,6.51725803 28.4118933,6.79951701 28.2149858,6.9740719 C28.1186268,7.05949238 27.9887516,7.10405959 27.8588765,7.10405959" id="Fill-7"></path>
                                <path d="M25.3305004,7.10405959 C25.2006252,7.10405959 25.0707501,7.05949238 24.9743911,6.9740719 L18.1873667,0.95749888 C17.9904592,0.782943984 17.9904592,0.500685003 18.1873667,0.322416172 C18.3842742,0.147861276 18.7026778,0.147861276 18.8995853,0.322416172 L25.6866097,6.3389892 C25.8877067,6.51725803 25.8877067,6.79951701 25.6866097,6.9740719 C25.5902507,7.05949238 25.4603756,7.10405959 25.3305004,7.10405959" id="Fill-9"></path>
                                <path d="M22.8038001,7.10405959 C22.673925,7.10405959 22.5440498,7.05949238 22.4476908,6.9740719 L15.6564769,0.95749888 C15.4637589,0.782943984 15.4637589,0.500685003 15.6564769,0.322416172 C15.8575739,0.147861276 16.1759775,0.147861276 16.372885,0.322416172 L23.1599094,6.3389892 C23.3568169,6.51725803 23.3568169,6.79951701 23.1599094,6.9740719 C23.0635505,7.05949238 22.9336753,7.10405959 22.8038001,7.10405959" id="Fill-11"></path>
                                <path d="M20.2754241,7.10405959 C20.1455489,7.10405959 20.0156738,7.05949238 19.9193148,6.9740719 L13.1322904,0.95749888 C12.9353829,0.782943984 12.9353829,0.500685003 13.1322904,0.322416172 C13.3291979,0.147861276 13.6476015,0.147861276 13.844509,0.322416172 L20.6315334,6.3389892 C20.8326304,6.51725803 20.8326304,6.79951701 20.6315334,6.9740719 C20.5351744,7.05949238 20.4052992,7.10405959 20.2754241,7.10405959" id="Fill-13"></path>
                                <path d="M17.7491428,7.10405959 C17.6192676,7.10405959 17.4893925,7.05949238 17.3930335,6.9740719 L10.6018195,0.95749888 C10.4091016,0.782943984 10.4091016,0.500685003 10.6018195,0.322416172 C10.8029166,0.147861276 11.1213202,0.147861276 11.3182277,0.322416172 L18.1052521,6.3389892 C18.3063491,6.51725803 18.3063491,6.79951701 18.1052521,6.9740719 C18.0088931,7.05949238 17.8790179,7.10405959 17.7491428,7.10405959" id="Fill-15"></path>
                                <path d="M15.2228615,7.10405959 C15.0929863,7.10405959 14.9631112,7.05949238 14.8667522,6.9740719 L8.07553825,0.95749888 C7.87863075,0.782943984 7.87863075,0.500685003 8.07553825,0.322416172 C8.27663527,0.147861276 8.59503888,0.147861276 8.79194638,0.322416172 L15.5789708,6.3389892 C15.7758783,6.51725803 15.7758783,6.79951701 15.5789708,6.9740719 C15.4826118,7.05949238 15.3527366,7.10405959 15.2228615,7.10405959" id="Fill-17"></path>
                                <path d="M12.6944854,7.10405959 C12.5646102,7.10405959 12.4347351,7.05949238 12.3383761,6.9740719 L5.5513517,0.95749888 C5.35444421,0.782943984 5.35444421,0.500685003 5.5513517,0.322416172 C5.7482592,0.147861276 6.06666282,0.147861276 6.26357031,0.322416172 L13.0505947,6.3389892 C13.2516917,6.51725803 13.2516917,6.79951701 13.0505947,6.9740719 C12.9542357,7.05949238 12.8243606,7.10405959 12.6944854,7.10405959" id="Fill-19"></path>
                                <path d="M10.1677851,7.10405959 C10.03791,7.10405959 9.90803483,7.05949238 9.81167584,6.9740719 L3.02046193,0.95749888 C2.82774395,0.782943984 2.82774395,0.500685003 3.02046193,0.322416172 C3.22155895,0.147861276 3.53996256,0.147861276 3.73687006,0.322416172 L10.5238945,6.3389892 C10.720802,6.51725803 10.720802,6.79951701 10.5238945,6.9740719 C10.4275355,7.05949238 10.2976603,7.10405959 10.1677851,7.10405959" id="Fill-21"></path>
                                <path d="M7.64150385,7.10405959 C7.51162869,7.10405959 7.38175353,7.05949238 7.28539454,6.9740719 L0.494180623,0.95749888 C0.297273126,0.782943984 0.297273126,0.500685003 0.494180623,0.322416172 C0.695277643,0.147861276 1.01368126,0.147861276 1.21058875,0.322416172 L7.99761315,6.3389892 C8.19452065,6.51725803 8.19452065,6.79951701 7.99761315,6.9740719 C7.90125416,7.05949238 7.771379,7.10405959 7.64150385,7.10405959" id="Fill-23"></path>
                            </g>
                        </g>
                        <g id="44.7亿" fill="#CCEEFF" fill-opacity="1">
                            <use filter="url(#filter-6)" xlink:href="#text-5"></use>
                            <use xlink:href="#text-5"></use>
                        </g>
                        <g id="融资">
                            <path d="M4.619,55.598 C6.619,55.598 8.249,53.978 8.249,51.978 C8.249,49.978 6.619,48.358 4.619,48.358 C2.619,48.358 0.999,49.978 0.999,51.978 C0.999,53.978 2.619,55.598 4.619,55.598 Z" id="Fill-39" fill="#1EBBF7"></path>
                            <path d="M6.527,51.91 L6.527,52.52 C6.527,52.67 6.937,52.8 7.437,52.8 L23.337,52.8 C23.837,52.8 24.247,52.67 24.247,52.52 C24.247,52.36 24.647,52.23 25.157,52.23 L47.137,52.23 C47.637,52.23 48.047,52.36 48.047,52.52 L48.047,52.75 C48.047,52.9 48.457,53.02 48.957,53.02 L94.027,53.02 L97.167,50.19 C97.547,49.85 97.767,49.49 97.667,49.37 L97.277,48.95 C97.177,48.83 97.397,48.46 97.767,48.13 L109.007,37.99 C109.377,37.65 109.597,37.29 109.487,37.17 L109.467,37.15 C109.367,37.04 109.587,36.67 109.967,36.33 L111.197,35.21 C111.567,34.88 111.957,34.7 112.067,34.81 L112.627,35.44 C112.737,35.55 113.117,35.38 113.497,35.04 L135.487,15.18 C135.867,14.85 136.087,14.48 135.977,14.36 L135.777,14.14 C135.677,14.03 135.897,13.66 136.267,13.33 L148.687,2.12 C149.057,1.77 149.277,1.4 149.177,1.29 L148.947,1.03 C148.837,0.92 148.457,1.1 148.087,1.44 L93.227,50.94 L81.587,50.94 C81.457,50.94 81.317,50.95 81.207,50.97 L78.227,51.39 C78.117,51.41 77.987,51.42 77.847,51.42 L67.127,51.42 C66.987,51.42 66.857,51.41 66.737,51.39 L63.707,50.96 C63.587,50.94 63.447,50.93 63.317,50.93 L16.797,50.93 C16.657,50.93 16.527,50.94 16.407,50.96 L13.547,51.37 C13.457,51.38 13.367,51.39 13.277,51.39 L7.317,51.64 C6.867,51.66 6.527,51.77 6.527,51.91" id="Fill-40" fill="#28CBFF"></path>
                        </g>
                        <text id="融资" font-family="PingFangSC-Medium, PingFang SC" font-size="18" font-weight="400" fill="#EAFAFF">
                            <tspan x="23" y="41">融资</tspan>
                        </text>
                    </g>
                    <g id="Group-76" transform="translate(311.000000, 223.500000) scale(-1, 1) translate(-311.000000, -223.500000) translate(233.000000, 181.000000)">
                        <path d="M10.5127977,83.1063 C10.5127977,83.5663 10.6627977,83.9463 10.8327977,83.9463 L36.4227977,83.9463 C36.5927977,83.9463 36.7427977,83.5663 36.7427977,83.1063 L36.7427977,83.0863 C36.7427977,82.6263 36.8827977,82.2463 37.0527977,82.2463 L44.7827977,82.2463 C44.9527977,82.2463 45.1027977,82.6263 45.1027977,83.0863 L45.1027977,83.7863 C45.1027977,84.2463 45.2427977,84.6163 45.4127977,84.6163 L62.4527977,84.6163 C62.6327977,84.6163 62.7727977,84.2463 62.7727977,83.7863 L62.7727977,82.0663 C62.7727977,81.6063 62.9127977,81.2263 63.0927977,81.2263 L68.4127977,81.2263 C68.5927977,81.2263 68.7227977,80.8563 68.7227977,80.3863 L68.7227977,80.3063 C68.7227977,79.8363 68.8727977,79.4663 69.0527977,79.4663 L69.6327977,79.4663 C69.8127977,79.4663 69.9527977,79.8363 69.9527977,80.3063 L69.9527977,82.8363 C69.9527977,83.2963 70.0927977,83.6763 70.2827977,83.6763 L80.6827977,83.6763 C80.8527977,83.6763 81.0027977,83.2963 81.0027977,82.8363 L81.0027977,81.9263 C81.0027977,81.4663 81.1427977,81.0863 81.3227977,81.0863 L99.2027977,81.0863 C99.3827977,81.0863 99.5127977,80.7163 99.5127977,80.2463 L99.5127977,79.2163 C99.5127977,78.7563 99.3827977,78.3763 99.2027977,78.3763 L56.8827977,78.3763 C56.8827977,78.3763 56.7827977,78.4063 56.7427977,78.4563 L55.7027977,79.7363 C55.6627977,79.7963 55.6127977,79.8163 55.5627977,79.8163 L51.8027977,79.8163 C51.7527977,79.8163 51.7027977,79.7963 51.6627977,79.7363 L50.6027977,78.4263 C50.5527977,78.3763 50.5127977,78.3563 50.4627977,78.3563 L14.1227977,78.3563 C14.0727977,78.3563 14.0327977,78.3763 13.9927977,78.4263 L12.9827977,79.6663 C12.9527977,79.7063 12.9127977,79.7263 12.8827977,79.7363 L10.7927977,80.4563 C10.6427977,80.5063 10.5127977,80.8663 10.5127977,81.2863 L10.5127977,83.1063 Z" id="亩产-底" fill="#00AEFF"></path>
                        <g id="3763亿" transform="translate(44.500000, 69.000000) scale(-1, 1) translate(-44.500000, -69.000000) " fill="#CCEEFF" fill-opacity="1">
                            <use filter="url(#filter-8)" xlink:href="#text-7"></use>
                            <use xlink:href="#text-7"></use>
                        </g>
                        <g id="亩产" transform="translate(6.000000, 0.000000)">
                            <path d="M4.619,55.598 C6.619,55.598 8.249,53.978 8.249,51.978 C8.249,49.978 6.619,48.358 4.619,48.358 C2.619,48.358 0.999,49.978 0.999,51.978 C0.999,53.978 2.619,55.598 4.619,55.598 Z" id="Fill-39" fill="#1EBBF7"></path>
                            <path d="M6.527,51.91 L6.527,52.52 C6.527,52.67 6.937,52.8 7.437,52.8 L23.337,52.8 C23.837,52.8 24.247,52.67 24.247,52.52 C24.247,52.36 24.647,52.23 25.157,52.23 L47.137,52.23 C47.637,52.23 48.047,52.36 48.047,52.52 L48.047,52.75 C48.047,52.9 48.457,53.02 48.957,53.02 L94.027,53.02 L97.167,50.19 C97.547,49.85 97.767,49.49 97.667,49.37 L97.277,48.95 C97.177,48.83 97.397,48.46 97.767,48.13 L109.007,37.99 C109.377,37.65 109.597,37.29 109.487,37.17 L109.467,37.15 C109.367,37.04 109.587,36.67 109.967,36.33 L111.197,35.21 C111.567,34.88 111.957,34.7 112.067,34.81 L112.627,35.44 C112.737,35.55 113.117,35.38 113.497,35.04 L135.487,15.18 C135.867,14.85 136.087,14.48 135.977,14.36 L135.777,14.14 C135.677,14.03 135.897,13.66 136.267,13.33 L148.687,2.12 C149.057,1.77 149.277,1.4 149.177,1.29 L148.947,1.03 C148.837,0.92 148.457,1.1 148.087,1.44 L93.227,50.94 L81.587,50.94 C81.457,50.94 81.317,50.95 81.207,50.97 L78.227,51.39 C78.117,51.41 77.987,51.42 77.847,51.42 L67.127,51.42 C66.987,51.42 66.857,51.41 66.737,51.39 L63.707,50.96 C63.587,50.94 63.447,50.93 63.317,50.93 L16.797,50.93 C16.657,50.93 16.527,50.94 16.407,50.96 L13.547,51.37 C13.457,51.38 13.367,51.39 13.277,51.39 L7.317,51.64 C6.867,51.66 6.527,51.77 6.527,51.91" id="Fill-40" fill="#28CBFF"></path>
                        </g>
                        <text id="知识产权总数" transform="translate(54.000000, 34.500000) scale(-1, 1) translate(-54.000000, -34.500000) " font-family="PingFangSC-Medium, PingFang SC" font-size="18" font-weight="400" fill="#EAFAFF">
                            <tspan x="0" y="41">知识产权总数</tspan>
                        </text>
                    </g>
                    <text id="企业数" font-family="PingFangSC-Medium, PingFang SC" font-size="18" font-weight="400" fill="#EAFAFF">
                        <tspan x="166" y="40">企业数</tspan>
                    </text>
                    <text id="60家" font-family="PingFangSC-Medium, PingFang SC" font-size="28" font-weight="400" fill="#EAFAFF">
                        <tspan x="167.7" y="76">60</tspan>
                        <tspan x="201.3" y="76" font-size="18">家</tspan>
                    </text>
                </g>
            </g>
        </g>
    </g>
</svg>