<?xml version="1.0" encoding="UTF-8"?>
<svg width="22px" height="22px" viewBox="0 0 22 22" version="1.1" xmlns="http://www.w3.org/2000/svg" xmlns:xlink="http://www.w3.org/1999/xlink">
    <!-- Generator: Sketch 51.2 (57519) - http://www.bohemiancoding.com/sketch -->
    <title>月累计营收-icon</title>
    <desc>Created with Sketch.</desc>
    <defs></defs>
    <g id="鲲鹏计划" stroke="none" stroke-width="1" fill="none" fill-rule="evenodd">
        <g transform="translate(-190.000000, -888.000000)" fill="#5EDFFF" fill-rule="nonzero" id="月累计营收-icon">
            <g transform="translate(190.000000, 888.000000)">
                <path d="M11,9.6421875 C10.7980469,9.6421875 10.6068359,9.56269531 10.4628906,9.42089844 L7.94707031,6.90292969 C7.65058594,6.60644531 7.65058594,6.12734375 7.94707031,5.83085938 C8.24355469,5.534375 8.72265625,5.534375 9.01914063,5.83085938 L11,7.81171875 L12.9808594,5.83085938 C13.2773438,5.534375 13.7564453,5.534375 14.0529297,5.83085938 C14.3494141,6.12734375 14.3494141,6.60644531 14.0529297,6.90292969 L11.5371094,9.42089844 C11.3931641,9.56269531 11.2019531,9.6421875 11,9.6421875 Z" id="Shape"></path>
                <path d="M11,16.3925781 C10.5810547,16.3925781 10.2416016,16.053125 10.2416016,15.6341797 L10.2416016,8.88378906 C10.2416016,8.46484375 10.5810547,8.12539063 11,8.12539063 C11.4189453,8.12539063 11.7583984,8.46484375 11.7583984,8.88378906 L11.7583984,15.6320313 C11.7583984,16.053125 11.4189453,16.3925781 11,16.3925781 Z" id="Shape"></path>
                <path d="M13.990625,11.2019531 L8.01152344,11.2019531 C7.59257812,11.2019531 7.253125,10.8625 7.253125,10.4435547 C7.253125,10.0246094 7.59257812,9.68515625 8.01152344,9.68515625 L13.990625,9.68515625 C14.4095703,9.68515625 14.7490234,10.0246094 14.7490234,10.4435547 C14.7490234,10.8625 14.4095703,11.2019531 13.990625,11.2019531 Z M13.990625,14.5599609 L8.01152344,14.5599609 C7.59257812,14.5599609 7.253125,14.2205078 7.253125,13.8015625 C7.253125,13.3826172 7.59257812,13.0431641 8.01152344,13.0431641 L13.990625,13.0431641 C14.4095703,13.0431641 14.7490234,13.3826172 14.7490234,13.8015625 C14.7490234,14.2205078 14.4095703,14.5599609 13.990625,14.5599609 Z" id="Shape"></path>
                <path d="M11,22 C4.93496094,22 0,17.0650391 0,11 C0,4.93496094 4.93496094,0 11,0 C17.0650391,0 22,4.93496094 22,11 C22,17.0650391 17.0650391,22 11,22 Z M11,1.51679688 C5.77070313,1.51679688 1.51679688,5.77070313 1.51679688,11 C1.51679688,16.2292969 5.77070313,20.4832031 11,20.4832031 C16.2292969,20.4832031 20.4832031,16.2292969 20.4832031,11 C20.4832031,5.77070313 16.2292969,1.51679688 11,1.51679688 Z" id="Shape"></path>
            </g>
        </g>
    </g>
</svg>