<?xml version="1.0" encoding="UTF-8"?>
<svg width="22px" height="26px" viewBox="0 0 22 26" version="1.1" xmlns="http://www.w3.org/2000/svg" xmlns:xlink="http://www.w3.org/1999/xlink">
    <!-- Generator: Sketch 51.2 (57519) - http://www.bohemiancoding.com/sketch -->
    <title>营收-icon</title>
    <desc>Created with Sketch.</desc>
    <defs></defs>
    <g id="鲲鹏计划" stroke="none" stroke-width="1" fill="none" fill-rule="evenodd">
        <g transform="translate(-189.000000, -848.000000)" fill-rule="nonzero" id="营收-icon">
            <g transform="translate(189.000000, 848.000000)">
                <path d="M6.9335403,7.71477015 C6.03486567,6.4768 5.4999403,5.33358806 5.4999403,4.66111045 C5.4999403,4.13535522 5.59164179,3.75632239 5.75976119,3.59431642 C5.99512836,3.36506269 6.59730149,3.38340299 7.13222687,3.39562985 C7.3064597,3.40174328 7.48986269,3.4048 7.66409552,3.40174328 C8.51386269,3.38951642 9.14660299,2.76900299 9.65707463,2.26770149 C9.77017313,2.15460299 9.92300896,2.00482388 10.0483343,1.90089552 C10.354006,2.24019104 10.5435224,2.57948657 10.7146985,2.88515821 C10.8675343,3.1633194 11.0142567,3.4231403 11.2251701,3.64016716 C11.5675224,3.99168955 12.0046328,4.13535522 12.4845373,4.0558806 C12.897194,3.98863284 13.242603,3.76549254 13.4810269,3.41397015 C13.6369194,3.18471642 13.7225075,2.93712239 13.7989254,2.71703881 C13.8784,2.48472836 13.9487045,2.28604179 14.0679164,2.176 C14.2604896,1.99871045 14.6731463,1.96202985 14.9879881,1.96202985 C15.9172299,1.96202985 16.5469134,2.14543284 16.8648119,2.50918209 C17.1888239,2.88210149 17.2866388,3.56374925 17.1521433,4.53578507 C17.0329313,5.40389254 16.4949493,6.54404776 15.6390687,7.7422806 C15.3486806,8.14882388 15.4434388,8.7112597 15.8499821,9.00164776 C16.0089313,9.11474627 16.1923343,9.16976716 16.3726806,9.16976716 C16.6538985,9.16976716 16.9320597,9.03832836 17.1062925,8.79073433 C17.8307343,7.77896119 18.7355224,6.25977313 18.9403224,4.7833791 C19.1542925,3.25196418 18.9189254,2.11792239 18.2281075,1.32317612 C17.5311761,0.540656716 16.4735522,0.161623881 14.9788179,0.161623881 C13.0622567,0.161623881 12.4600836,1.16117015 12.1910925,1.84587463 C11.9618388,1.43933134 11.6439403,0.925802985 11.1029015,0.412274627 C10.6168836,-0.0462328358 9.96274627,-0.125707463 9.3544597,0.198304478 C8.99682388,0.390877612 8.68809552,0.693492537 8.38853731,0.986937313 C8.1806806,1.19173731 7.79247761,1.57077015 7.63352836,1.60133731 C7.4929194,1.60439403 7.34008358,1.5982806 7.17807761,1.59522388 C6.37721791,1.57382687 5.27985672,1.54631642 4.50039403,2.30438209 C3.95935522,2.83013731 3.69647761,3.60348657 3.69647761,4.66416716 C3.69647761,6.03663284 4.6624,7.65669254 5.47242985,8.77545075 C5.76281791,9.1758806 6.32831045,9.26758209 6.73179701,8.97413731 C7.13528358,8.68069254 7.22392836,8.11825672 6.9335403,7.71477015 Z" id="Shape" fill="#5EDFFF"></path>
                <path d="M20.6704239,14.5587582 C19.8879045,13.0120597 18.7844299,11.4378507 17.5586866,10.1295761 C16.993194,9.52434627 16.173994,9.17893731 15.3150567,9.17893731 L7.3064597,9.17893731 C6.49031642,9.17893731 5.69862687,9.49683582 5.13619104,10.0531582 C2.77946269,12.3701493 0.0284179104,16.1849313 0.0284179104,19.2936119 C0.0284179104,20.6538507 0.719235821,22.1730388 1.87773134,23.3529313 C2.46767761,23.9551045 3.13404179,24.4319522 3.86459701,24.7743045 C4.67157015,25.1533373 5.50911045,25.3459104 6.36193433,25.3459104 L15.6604657,25.3459104 C16.5102328,25.3459104 17.3508299,25.156394 18.1547463,24.7804179 C18.8853015,24.4380657 19.5547224,23.9642746 20.1416119,23.3651582 C21.3001075,22.1852657 21.9909254,20.6660776 21.9909254,19.2936119 C21.9909254,17.9058627 21.5354746,16.2674627 20.6704239,14.5587582 Z" id="Shape" fill="#5EDFFF"></path>
                <path d="M13.6827701,17.2364418 C14.0434627,17.2364418 14.3369075,16.942997 14.3369075,16.5823045 C14.3369075,16.2216119 14.0434627,15.9281672 13.6827701,15.9281672 L12.2736239,15.9281672 L13.7958687,14.4059224 C14.0495761,14.1522149 14.0495761,13.7365015 13.7958687,13.482794 C13.5391045,13.2290866 13.1264478,13.2290866 12.8727403,13.482794 L11.3504955,15.0050388 L9.82825075,13.482794 C9.57148657,13.2290866 9.15882985,13.2290866 8.90512239,13.482794 C8.64835821,13.7365015 8.64835821,14.1522149 8.90512239,14.4059224 L10.4273672,15.9281672 L9.01516418,15.9281672 C8.65447164,15.9281672 8.36102687,16.2216119 8.36102687,16.5823045 C8.36102687,16.942997 8.65447164,17.2364418 9.01516418,17.2364418 L10.6963582,17.2364418 L10.6963582,18.107606 L9.01516418,18.107606 C8.65447164,18.107606 8.36102687,18.4010507 8.36102687,18.7617433 C8.36102687,19.1224358 8.65447164,19.4158806 9.01516418,19.4158806 L10.6963582,19.4158806 L10.6963582,20.5774328 C10.6963582,20.9381254 10.989803,21.2315701 11.3504955,21.2315701 C11.7111881,21.2315701 12.0046328,20.9381254 12.0046328,20.5774328 L12.0046328,19.4158806 L13.6858269,19.4158806 C14.0465194,19.4158806 14.3399642,19.1224358 14.3399642,18.7617433 C14.3399642,18.4010507 14.0465194,18.107606 13.6858269,18.107606 L12.0046328,18.107606 L12.0046328,17.2364418 L13.6827701,17.2364418 Z" id="Shape" fill="#FFFFFF"></path>
            </g>
        </g>
    </g>
</svg>